<?xml version="1.0" encoding="UTF-8"?> <svg xmlns="http://www.w3.org/2000/svg" width="250" height="128" viewBox="0 0 250 128" fill="none"><g clip-path="url(#clip0_698_880)"><g clip-path="url(#clip1_698_880)"><path d="M172.211 62.9934C171.636 63.5139 171.048 64.0215 170.486 64.559C168.835 66.1375 167.032 67.4336 164.828 68.0809C163.203 68.5586 161.566 68.4588 159.924 68.4245C159.899 68.3675 159.875 68.3105 159.85 68.2534C163.965 64.9497 168.078 61.6474 172.193 58.3437C172.168 58.2966 172.143 58.2481 172.118 58.2011C171.925 58.308 171.723 58.4036 171.537 58.5262C170.262 59.3674 168.999 60.2301 167.712 61.0542C166.123 62.0723 164.359 62.5314 162.519 62.7639C160.755 62.9863 159.038 62.761 157.334 62.3204C157.162 62.2762 156.995 62.2106 156.725 62.1208C161.97 59.3603 167.132 56.6455 172.294 53.9292C172.283 53.8893 172.272 53.8493 172.261 53.8094C172.132 53.8379 172 53.8536 171.875 53.8978C169.519 54.7334 167.161 55.5618 164.81 56.4116C161.563 57.5865 158.362 57.4183 155.192 56.1122C154.623 55.8783 154.066 55.6117 153.388 55.3108C159.462 53.587 165.414 51.8988 171.364 50.2105C171.355 50.1563 171.344 50.1022 171.334 50.048C170.551 50.1735 169.766 50.2961 168.985 50.4258C166.586 50.8265 164.2 51.3441 161.787 51.6079C157.973 52.0257 154.405 51.1117 151.116 49.0698C150.84 48.8987 150.572 48.7176 150.304 48.538C150.268 48.5137 150.247 48.4681 150.164 48.3612C156.967 47.7851 163.719 47.2134 170.472 46.6416C170.478 46.6002 170.483 46.5589 170.489 46.5175C170.281 46.4819 170.075 46.4206 169.866 46.4149C167.127 46.3393 164.387 46.2865 161.649 46.1981C159.972 46.144 158.288 46.114 156.621 45.9386C153.612 45.6207 150.93 44.3901 148.508 42.5493C147.827 42.0318 147.163 41.4885 146.383 40.8711C154.156 41.6097 161.78 42.3326 169.407 43.057C169.416 42.9956 169.426 42.9343 169.436 42.873C168.725 42.7105 168.015 42.5422 167.302 42.3868C164.167 41.7024 161.03 41.0251 157.897 40.3364C156.083 39.9386 154.268 39.5479 152.463 39.113C149.702 38.4471 147.296 37.0626 145.191 35.1249C144.248 34.2565 143.359 33.324 142.448 32.4186C142.354 32.3259 142.273 32.2189 142.113 32.0322C150.712 34.3007 159.201 36.5407 167.69 38.7808L167.741 38.604C166.545 38.1563 165.353 37.7014 164.156 37.2594C158.474 35.1619 152.773 33.1115 147.113 30.9514C144.446 29.9333 142.197 28.2194 140.371 25.9423C139.436 24.7759 138.46 23.6452 137.559 22.3905C146.859 26.2845 156.156 30.1785 165.455 34.0711C165.48 34.0113 165.506 33.9528 165.531 33.8929C164.965 33.6106 164.398 33.3325 163.835 33.0445C159.499 30.8302 155.164 28.6115 150.828 26.3971C147.762 24.833 144.693 23.2745 141.626 21.7117C139.039 20.3942 136.909 18.5278 135.249 16.0938C134.351 14.7778 133.443 13.4688 132.541 12.157C132.482 12.07 132.431 11.9774 132.457 11.7834C142.253 17.2602 152.05 22.7369 161.845 28.2151C161.879 28.1624 161.912 28.111 161.945 28.0583C161.621 27.8415 161.302 27.6177 160.974 27.4081C153.991 22.9423 147.007 18.4779 140.022 14.0149C138.384 12.9683 136.75 11.9146 135.104 10.8809C132.555 9.28104 130.556 7.13654 129.063 4.48015C128.24 3.01436 127.41 1.55142 126.658 0.00292969C141.843 10.4474 157.026 20.8933 172.211 31.3378C172.261 31.3021 172.312 31.2679 172.362 31.2322C169.88 28.4475 168.232 25.2878 168.005 21.4893C168.048 21.4579 168.091 21.428 168.135 21.3966L184.11 37.8796C184.157 37.8483 184.203 37.8155 184.25 37.7841C184.05 37.2979 183.912 36.7689 183.638 36.3311C182.931 35.2019 182.843 34.1111 183.5 32.9091C183.843 32.2817 184.037 31.5559 184.223 30.8544C184.36 30.3368 184.679 30.1457 185.131 30.0559C185.546 29.9732 185.96 29.8762 186.349 29.6952C184.918 29.3715 183.487 29.0492 182.028 28.7199C182.574 27.7161 189.59 22.5687 192.061 21.3253C191.994 21.6162 191.947 21.8515 191.884 22.0825C191.215 24.602 190.535 27.12 189.878 29.6438C189.772 30.0516 189.832 30.4281 190.081 30.8401C192.428 34.7199 194.214 38.8749 195.661 43.1881C195.807 43.623 195.959 44.0565 196.226 44.4757C196.238 44.259 196.263 44.0408 196.259 43.8241C196.227 42.2599 196.207 40.6943 196.144 39.1315C196.126 38.6795 196.406 38.5869 196.694 38.4386C199.819 36.8288 202.943 35.2161 206.069 33.6049C207.129 33.0588 208.191 32.5155 209.356 31.9167C209.063 33.1329 208.367 33.9585 207.588 34.7028C206.82 35.4357 205.988 36.1002 205.218 36.8787C220.315 31.6942 235.413 26.5112 250.511 21.3268L250.576 21.4522C248.196 23.4926 246.115 25.8867 243.504 27.6533C241.776 28.8225 239.838 29.4713 237.897 30.1215C234.072 31.4034 230.248 32.6852 226.425 33.9685C226.221 34.0369 226.019 34.1196 225.817 34.1966C225.83 34.2465 225.846 34.295 225.859 34.3449C231.026 33.1529 236.192 31.9594 241.358 30.7674C241.375 30.7945 241.39 30.8202 241.407 30.8473C240.707 31.4133 240.015 31.9894 239.306 32.5455C237.775 33.7489 236.323 35.0621 234.604 36.0032C232.74 37.0241 230.761 37.6187 228.692 37.9723C226.205 38.3972 223.727 38.8663 221.245 39.3169C218.74 39.7703 216.235 40.2223 213.73 40.6786C213.416 40.7356 213.104 40.8126 212.803 41.0023C219.687 40.2993 226.573 39.5964 233.58 38.8806C233.336 39.0688 233.185 39.1986 233.022 39.3098C231.661 40.2337 230.334 41.2162 228.928 42.0617C226.47 43.5417 223.797 44.3074 220.937 44.3545C217.23 44.4144 213.523 44.4885 209.817 44.5612C209.627 44.5655 209.438 44.6154 209.25 44.6454C209.254 44.6938 209.258 44.7423 209.262 44.7908C215.225 44.9719 221.19 45.1516 227.261 45.3355C227.063 45.4838 226.937 45.5964 226.798 45.6791C224.892 46.8127 223.001 47.9676 220.845 48.5637C218.506 49.211 216.158 49.3978 213.755 48.9971C212.352 48.7633 210.925 48.672 209.511 48.5109C208.05 48.3441 206.59 48.1715 205.131 48.0033C204.908 47.9776 204.684 47.9619 204.461 47.9434C204.454 47.989 204.449 48.0347 204.442 48.0789C210.055 49.1625 215.668 50.2462 221.281 51.3284C221.294 51.374 221.307 51.4197 221.32 51.4653C220.589 51.8061 219.87 52.1768 219.124 52.4805C216.56 53.5271 213.879 53.9049 211.156 53.6012C209.551 53.4216 207.975 52.9411 206.395 52.5604C204.443 52.0912 202.498 51.5865 200.55 51.0974C200.534 51.1416 200.519 51.1844 200.505 51.2286C205.461 53.3075 210.419 55.3878 215.488 57.5152C213.922 58.1383 212.437 58.5205 210.881 58.6317C207.943 58.8427 205.275 57.9416 202.68 56.644C201.135 55.8712 199.551 55.1825 197.983 54.4582C197.89 54.4154 197.788 54.3954 197.637 54.4724C201.676 57.4069 205.713 60.3413 209.833 63.3342C208.574 63.6921 207.4 63.8233 206.204 63.7848C203.794 63.7092 201.719 62.7624 199.841 61.2496C198.394 60.0832 196.903 58.9739 195.428 57.8432C195.328 57.7662 195.206 57.722 195.031 57.7491C198.182 61.405 201.336 65.0609 204.54 68.7767C203.603 68.9721 202.743 68.8266 201.9 68.6726C199.173 68.1736 197.052 66.6536 195.313 64.4806C194.452 63.4041 193.518 62.3903 192.618 61.348C192.573 61.3765 192.528 61.405 192.483 61.4335C194.737 65.6584 196.992 69.8846 199.284 74.1808C197.957 74.1779 196.806 73.7687 195.717 73.1727C193.98 72.2216 192.681 70.8286 191.839 68.9863C191.379 67.9839 190.888 66.9987 190.411 66.0063C190.358 66.0262 190.304 66.0462 190.252 66.0662C191.652 70.388 193.053 74.7097 194.502 79.1784C192.618 78.6565 191.172 77.7055 189.951 76.2982C188.72 74.878 188.186 73.1342 187.525 71.4189C187.662 72.1518 187.776 72.8889 187.941 73.6147C188.71 77.0268 188.457 80.3704 187.386 83.677C186.974 84.9503 186.62 86.2436 186.116 87.5454C185.66 84.8106 185.203 82.0758 184.746 79.3395C184.723 79.3367 184.698 79.3338 184.674 79.331C184.654 79.4607 184.618 79.5905 184.616 79.7217C184.604 80.8139 184.596 81.9061 184.589 82.9969C184.569 86.2963 184.551 89.5958 184.531 92.8952C184.514 95.459 184.553 98.0241 184.463 100.585C184.318 104.721 182.989 108.446 180.549 111.739C180.528 111.767 180.467 111.764 180.366 111.789V95.0825C180.326 95.0797 180.286 95.0754 180.246 95.0725C180.182 95.5417 180.098 96.0079 180.056 96.4784C179.815 99.1904 179.665 101.914 179.331 104.614C178.757 109.277 177.361 113.69 175.132 117.798C174.406 119.138 173.567 120.414 172.758 121.705C172.46 122.178 172.099 122.61 171.673 123.028C173.427 112.497 175.182 101.965 176.936 91.4323C176.885 91.4223 176.832 91.4109 176.781 91.4009C173.838 103.545 170.895 115.688 167.911 128C167.37 126.928 167.052 125.961 166.814 124.962C166.208 122.416 166.355 119.9 167.002 117.38C168.74 110.627 170.45 103.867 172.17 97.1101C172.197 97.0017 172.193 96.8834 172.204 96.7708C172.161 96.7579 172.117 96.7437 172.074 96.7308C169.364 104.341 166.652 111.951 163.942 119.56C163.893 119.57 163.843 119.582 163.795 119.592C163.564 118.976 163.287 118.374 163.11 117.742C162.364 115.076 162.392 112.421 163.313 109.797C165.386 103.893 167.463 97.9913 169.537 92.0868C169.611 91.8743 169.659 91.6519 169.719 91.4337C169.676 91.4152 169.635 91.3981 169.592 91.3796C166.364 98.0298 163.136 104.68 159.868 111.414C159.225 110.162 158.905 108.935 158.808 107.662C158.644 105.514 159.059 103.492 160.009 101.552C163.947 93.5184 167.845 85.4651 171.756 77.4175C171.874 77.1751 171.973 76.9241 172.081 76.6775C172.035 76.6518 171.991 76.6247 171.946 76.599C170.453 78.9232 168.958 81.2459 167.466 83.5701C167.424 83.5573 167.384 83.543 167.342 83.5302C167.445 82.8714 167.542 82.2112 167.65 81.5525C167.929 79.8514 168.155 78.139 168.509 76.4564C168.99 74.1722 170.045 72.1646 171.54 70.4022C171.994 69.8675 172.416 69.3057 172.846 68.7496C172.925 68.6484 172.971 68.5201 173.008 68.4488C172.441 68.9849 171.821 69.5011 171.281 70.0957C169.869 71.6556 168.362 73.0429 166.292 73.619C165.102 73.9498 163.903 74.0581 162.572 73.9954C163.236 73.2454 163.839 72.5467 164.46 71.868C166.955 69.1403 169.455 66.4183 171.95 63.6921C172.103 63.5238 172.229 63.3271 172.368 63.1431C172.319 63.0947 172.271 63.0447 172.224 62.9963L172.211 62.9934Z" fill="url(#paint0_linear_698_880)"></path><path d="M24.7591 45.7918V59.6013H20.6693V38.3203H25.9863C27.7393 41.9263 29.5131 45.5765 31.3353 49.3266C33.1491 45.5936 34.9173 41.9534 36.6911 38.3018H41.9957V59.6042H37.9239V45.7704L37.7952 45.7376C37.6803 45.9544 37.5586 46.1683 37.4507 46.3878C36.0809 49.2011 34.7043 52.0115 33.3553 54.8361C33.1657 55.2339 32.9582 55.3979 32.5237 55.3765C31.742 55.3394 30.9548 55.3337 30.1744 55.3779C29.7026 55.405 29.4937 55.2111 29.2945 54.7933C27.9538 51.9858 26.5854 49.1939 25.224 46.3978C25.1216 46.1868 25.0165 45.9786 24.9127 45.7676C24.8615 45.7747 24.8103 45.7819 24.7591 45.7876V45.7918Z" fill="white"></path><path d="M90.9481 71.5345V85.2342H86.7697V63.9717H92.3275C94.5537 68.5573 96.7937 73.1671 99.0324 77.7783C99.0683 77.7726 99.1043 77.7684 99.1403 77.7627V63.9831H103.351V85.2342C103.151 85.2513 102.955 85.2841 102.76 85.2841C101.308 85.2884 99.857 85.2641 98.4056 85.2998C97.9393 85.3112 97.718 85.1415 97.5187 84.728C95.5042 80.5445 93.4718 76.3696 91.4434 72.1932C91.3328 71.9665 91.2179 71.7427 91.1058 71.5174C91.0533 71.5231 91.0007 71.5273 90.9481 71.533V71.5345Z" fill="white"></path><path d="M86.7946 38.2817C87.0866 38.2817 87.337 38.2817 87.5888 38.2817C90.1456 38.2817 92.7025 38.2774 95.2607 38.2817C98.739 38.2888 102.269 40.7741 103.133 44.872C103.875 48.3839 102.833 51.3497 100.092 53.6354C100.004 53.7081 99.9275 53.7951 99.8141 53.9063C100.976 55.7828 102.132 57.6492 103.344 59.6069C103.096 59.6226 102.927 59.6426 102.758 59.6426C101.515 59.6454 100.269 59.6198 99.0268 59.6568C98.5509 59.6711 98.2825 59.5043 98.0417 59.0922C97.3901 57.98 96.6886 56.8978 96.0162 55.797C95.8626 55.5446 95.7159 55.3522 95.3783 55.3564C93.9961 55.3764 92.6139 55.3707 91.2318 55.3778C91.1681 55.3778 91.1045 55.4135 90.9675 55.452V59.5898H86.796V38.2817H86.7946ZM90.9924 51.1045C91.9415 51.1045 92.8561 51.1216 93.7706 51.0988C94.5025 51.0803 95.2483 51.0959 95.9594 50.9519C97.8757 50.5641 99.1984 48.7932 99.1804 46.7556C99.1624 44.7694 97.8093 43.064 95.8986 42.6833C95.3424 42.5721 94.7626 42.565 94.1912 42.555C93.1397 42.5365 92.0882 42.5493 90.9924 42.5493V51.1045Z" fill="white"></path><path d="M117.915 38.2815C123.334 38.2244 128.256 42.5462 128.26 48.9484C128.265 55.2792 123.368 59.7864 117.592 59.6538C112.175 59.5297 107.409 55.0482 107.479 48.7944C107.547 42.8014 112.257 38.1674 117.915 38.2829V38.2815ZM111.691 48.9712C111.588 52.1751 114.183 55.3904 117.914 55.3562C121.528 55.3234 124.072 52.3277 124.071 48.9484C124.07 45.4507 121.264 42.5277 117.892 42.5533C114.183 42.5819 111.577 45.753 111.689 48.9712H111.691Z" fill="white"></path><path d="M147.173 85.2856C145.634 85.2856 144.188 85.2984 142.742 85.267C142.585 85.2642 142.377 85.0261 142.286 84.8464C141.732 83.757 141.19 82.6605 140.679 81.5484C140.497 81.152 140.271 81.0008 139.838 81.0037C137.005 81.0222 134.171 81.0236 131.339 81.0037C130.898 81.0008 130.687 81.1719 130.506 81.5626C129.93 82.8003 129.317 84.0208 128.711 85.2642H124.049C124.182 84.979 124.291 84.7352 124.407 84.4956C127.25 78.6339 130.088 72.7693 132.951 66.9161C133.186 66.4342 133.214 66.0663 132.942 65.6072C132.646 65.1067 132.428 64.5578 132.126 63.9275C133.009 63.9275 133.802 63.9275 134.594 63.9275C135.148 63.9275 135.703 63.9575 136.252 63.9175C136.689 63.8862 136.888 64.0673 137.079 64.4608C139.961 70.4352 142.863 76.3996 145.759 82.3668C146.218 83.3136 146.676 84.2618 147.173 85.287V85.2856ZM135.593 71.0925C134.654 73.0302 133.775 74.8439 132.866 76.7175H138.319C137.411 74.8454 136.533 73.0317 135.593 71.0925Z" fill="white"></path><path d="M8.1285 63.9458H12.7967C16.2335 71.0281 19.6675 78.1047 23.1542 85.2867C21.9546 85.2867 20.8519 85.2055 19.7658 85.311C18.7668 85.4079 18.2162 85.0771 17.8772 84.1018C17.5853 83.2649 17.1065 82.4977 16.7454 81.6836C16.5324 81.2031 16.2681 80.9878 15.705 80.9963C12.9406 81.0348 10.1762 81.0234 7.4118 81.0049C6.94415 81.002 6.67436 81.1161 6.46129 81.5937C5.90924 82.8357 5.28248 84.042 4.68892 85.2568H0.0567017C0.174306 84.9959 0.265622 84.7834 0.36524 84.5767C3.21818 78.6935 6.06835 72.8076 8.93789 66.9316C9.16895 66.4596 9.21322 66.0817 8.94481 65.6198C8.65287 65.1179 8.43012 64.5746 8.1285 63.9458ZM11.5778 71.0751C10.6355 73.0214 9.75005 74.848 8.84796 76.7087H14.3131C13.3944 74.8166 12.5103 72.9943 11.5778 71.0751Z" fill="white"></path><path d="M82.6051 85.2566H77.9314C77.3448 84.046 76.7415 82.8341 76.1701 81.605C75.9681 81.1686 75.7135 80.9947 75.221 81.0004C72.4345 81.0289 69.6465 81.026 66.86 81.0032C66.3772 80.999 66.1253 81.1472 65.922 81.6107C65.4515 82.6843 64.9009 83.7209 64.4056 84.7846C64.2381 85.1454 64.0389 85.3093 63.6238 85.2994C62.2901 85.2694 60.9549 85.288 59.516 85.288C59.6419 85.0028 59.7332 84.7789 59.8384 84.5622C62.6802 78.699 65.5152 72.833 68.3778 66.9813C68.6352 66.4566 68.678 66.0488 68.3695 65.5454C68.0803 65.0735 67.8811 64.543 67.6127 63.9741H72.2767C75.7052 71.0407 79.1407 78.1173 82.6051 85.258V85.2566ZM73.789 76.7256C72.8551 74.805 71.9723 72.9913 71.0412 71.0764C70.0948 73.0312 69.2135 74.8549 68.3086 76.7256H73.7904H73.789Z" fill="white"></path><path d="M46.253 38.313H60.0334C59.3693 39.6775 58.7481 40.9936 58.0798 42.2826C57.9982 42.4408 57.6689 42.5335 57.4531 42.5349C55.4953 42.5535 53.5361 42.5463 51.5784 42.5463C51.2117 42.5463 50.8451 42.5463 50.4106 42.5463V46.7969H55.8177V51.0787H50.4051V55.3549H59.9712V59.6011H46.253V38.3115V38.313Z" fill="white"></path><path d="M32.8946 85.2639H28.665V68.2148H21.7831C21.0982 66.8032 20.4272 65.4172 19.7202 63.9614H39.735V68.1592H32.8946V85.2624V85.2639Z" fill="white"></path><path d="M75.7233 42.5306V59.6082H71.5448V42.5677H62.5613C63.2849 41.0705 63.9476 39.6989 64.62 38.3101H82.5858V42.5306H75.7233Z" fill="white"></path><path d="M107.5 63.9546H127.414C127.342 64.1428 127.291 64.3125 127.214 64.4693C126.697 65.5473 126.16 66.6153 125.662 67.7032C125.491 68.0768 125.272 68.2065 124.871 68.2008C123.028 68.1794 121.185 68.1908 119.342 68.1908C119.094 68.1908 118.845 68.1908 118.52 68.1908V85.2528H114.394V68.2308H107.5V63.9546Z" fill="white"></path><path d="M43.9009 63.9428H47.9922C47.9922 66.7903 47.9922 69.6263 47.9922 72.461C47.9922 75.2956 47.9922 78.1017 47.9922 80.9933H56.9592C56.2369 82.4834 55.5659 83.8707 54.8907 85.2638H43.9009V63.9414V63.9428Z" fill="white"></path><path d="M70.1419 100.23H68.7888V89.6399C68.8455 89.6199 68.9077 89.58 68.97 89.5771C69.8352 89.5401 70.4647 89.927 70.8586 90.7378C71.7524 92.5786 72.6476 94.4194 73.5441 96.2588C73.6465 96.4669 73.7558 96.6723 73.9191 96.9874C75.1477 94.4636 76.332 92.0325 77.5136 89.6028H79.0646V100.196H77.746V92.7982C77.6962 92.7796 77.645 92.7625 77.5952 92.744C76.5755 94.6105 75.7385 96.5781 74.7589 98.4617C74.7091 98.4774 74.6662 98.5016 74.6219 98.5031C73.5787 98.5487 72.8265 98.0957 72.3653 97.1442C71.6611 95.6898 70.9596 94.234 70.1419 92.791V100.23Z" fill="white"></path><path d="M93.2587 100.24V89.6302C93.4303 89.6102 93.6032 89.5731 93.7762 89.5717C94.9273 89.566 96.0798 89.5959 97.231 89.5631C99.3825 89.5018 100.936 91.9443 99.7726 94.1174C99.6951 94.2614 99.6149 94.404 99.5333 94.5508C99.7187 94.7561 99.9041 94.9558 100.084 95.1597C100.925 96.1164 101.083 97.24 100.635 98.3893C100.178 99.557 99.2759 100.221 98.0155 100.236C96.4534 100.253 94.8914 100.24 93.2587 100.24ZM94.7143 98.8099C95.8682 98.8099 96.9944 98.8755 98.1109 98.7885C98.9826 98.7201 99.5263 97.8888 99.4475 97.0275C99.3838 96.3246 98.6063 95.5532 97.8688 95.6516C97.3472 95.7215 96.8104 95.6644 96.2805 95.6644C95.7602 95.6644 95.24 95.6644 94.7156 95.6644V98.8085L94.7143 98.8099ZM94.7143 94.1402C94.955 94.1559 95.1141 94.1758 95.2718 94.1744C95.9401 94.1715 96.6084 94.1844 97.2753 94.1473C98.0888 94.1017 98.6865 93.5128 98.7529 92.7485C98.8235 91.9372 98.3918 91.1872 97.5824 91.0845C96.6443 90.9662 95.6814 91.0574 94.7143 91.0574V94.1402Z" fill="white"></path><path d="M140.912 97.0629V100.208H139.598V89.5885C141.126 89.5885 142.654 89.4601 144.151 89.6255C145.582 89.7824 146.576 90.7506 146.993 92.1907C147.422 93.675 147.07 94.9968 145.976 96.0819C145.814 96.243 145.627 96.377 145.404 96.5638C145.984 97.7744 146.56 98.9749 147.156 100.217H145.57C145.122 99.2901 144.696 98.3775 144.235 97.4821C144.144 97.3053 143.928 97.0871 143.761 97.08C142.846 97.0415 141.927 97.0614 140.912 97.0614V97.0629ZM140.97 95.5728C141.878 95.5728 142.747 95.5614 143.615 95.5757C144.627 95.5914 145.604 94.7672 145.763 93.4754C145.896 92.396 145.085 91.2396 143.95 91.0828C142.987 90.9502 141.994 91.0557 140.97 91.0557V95.5743V95.5728Z" fill="white"></path><path d="M49.8683 89.5942H51.6462C53.3563 93.1204 55.0623 96.6365 56.7987 100.213H55.2145C54.8105 99.3899 54.3663 98.5415 53.9776 97.666C53.7894 97.2425 53.5652 97.0686 53.0948 97.0786C51.53 97.1114 49.9624 97.1057 48.3976 97.0814C47.9756 97.0743 47.7321 97.1941 47.5508 97.6061C47.162 98.4887 46.7165 99.3443 46.289 100.221H44.7159C46.4454 96.6551 48.1458 93.146 49.8683 89.5928V89.5942ZM50.751 91.0386C49.9832 92.627 49.2914 94.06 48.5802 95.5329H52.9274C52.1997 94.0301 51.5189 92.6242 50.751 91.0386Z" fill="white"></path><path d="M123.998 89.623V90.9562H117.868V94.1716H121.908V95.6488H117.846V98.817H123.984V100.184H116.407V89.623H123.996H123.998Z" fill="white"></path><path d="M23.1583 89.5874H24.4547V94.1116H30.6933V89.6159H32.0298V100.199H30.7293V95.7243H24.5004V100.204H23.1583V89.5859V89.5874Z" fill="white"></path><path d="M8.8563 91.1173C8.50902 91.4538 8.19495 91.7561 7.87811 92.0626C5.52049 90.1605 3.46588 91.0788 2.40883 92.2965C1.00588 93.912 1.10549 96.1435 2.50568 97.6164C3.87957 99.0622 6.01166 99.3474 7.88226 97.6934C8.16728 98.0384 8.45645 98.3878 8.7553 98.7485C7.45474 100.461 3.9778 101.02 1.71427 98.8711C-0.355564 96.9063 -0.684856 93.5698 1.46522 91.1757C3.38978 89.0327 6.91929 89.0099 8.8563 91.1159V91.1173Z" fill="white"></path><path d="M172.211 62.9934C171.636 63.5139 171.048 64.0215 170.486 64.559C168.835 66.1375 167.032 67.4336 164.828 68.0809C163.203 68.5586 161.566 68.4588 159.924 68.4245C159.899 68.3675 159.875 68.3105 159.85 68.2534C163.965 64.9497 168.078 61.6474 172.193 58.3437C172.168 58.2966 172.143 58.2481 172.118 58.2011C171.925 58.308 171.723 58.4036 171.537 58.5262C170.262 59.3674 168.999 60.2301 167.712 61.0542C166.123 62.0723 164.359 62.5314 162.519 62.7639C160.755 62.9863 159.038 62.761 157.334 62.3204C157.162 62.2762 156.995 62.2106 156.725 62.1208C161.97 59.3603 167.132 56.6455 172.294 53.9292C172.283 53.8893 172.272 53.8493 172.261 53.8094C172.132 53.8379 172 53.8536 171.875 53.8978C169.519 54.7334 167.161 55.5618 164.81 56.4116C161.563 57.5865 158.362 57.4183 155.192 56.1122C154.623 55.8783 154.066 55.6117 153.388 55.3108C159.462 53.587 165.414 51.8988 171.364 50.2105C171.355 50.1563 171.344 50.1022 171.334 50.048C170.551 50.1735 169.766 50.2961 168.985 50.4258C166.586 50.8265 164.2 51.3441 161.787 51.6079C157.973 52.0257 154.405 51.1117 151.116 49.0698C150.84 48.8987 150.572 48.7176 150.304 48.538C150.268 48.5137 150.247 48.4681 150.164 48.3612C156.967 47.7851 163.719 47.2134 170.472 46.6416C170.478 46.6002 170.483 46.5589 170.489 46.5175C170.281 46.4819 170.075 46.4206 169.866 46.4149C167.127 46.3393 164.387 46.2865 161.649 46.1981C159.972 46.144 158.288 46.114 156.621 45.9386C153.612 45.6207 150.93 44.3901 148.508 42.5493C147.827 42.0318 147.163 41.4885 146.383 40.8711C154.156 41.6097 161.78 42.3326 169.407 43.057C169.416 42.9956 169.426 42.9343 169.436 42.873C168.725 42.7105 168.015 42.5422 167.302 42.3868C164.167 41.7024 161.03 41.0251 157.897 40.3364C156.083 39.9386 154.268 39.5479 152.463 39.113C149.702 38.4471 147.296 37.0626 145.191 35.1249C144.248 34.2565 143.359 33.324 142.448 32.4186C142.354 32.3259 142.273 32.2189 142.113 32.0322C150.712 34.3007 159.201 36.5407 167.69 38.7808L167.741 38.604C166.545 38.1563 165.353 37.7014 164.156 37.2594C158.474 35.1619 152.773 33.1115 147.113 30.9514C144.446 29.9333 142.197 28.2194 140.371 25.9423C139.436 24.7759 138.46 23.6452 137.559 22.3905C146.859 26.2845 156.156 30.1785 165.455 34.0711C165.48 34.0113 165.506 33.9528 165.531 33.8929C164.965 33.6106 164.398 33.3325 163.835 33.0445C159.499 30.8302 155.164 28.6115 150.828 26.3971C147.762 24.833 144.693 23.2745 141.626 21.7117C139.039 20.3942 136.909 18.5278 135.249 16.0938C134.351 14.7778 133.443 13.4688 132.541 12.157C132.482 12.07 132.431 11.9774 132.457 11.7834C142.253 17.2602 152.05 22.7369 161.845 28.2151C161.879 28.1624 161.912 28.111 161.945 28.0583C161.621 27.8415 161.302 27.6177 160.974 27.4081C153.991 22.9423 147.007 18.4779 140.022 14.0149C138.384 12.9683 136.75 11.9146 135.104 10.8809C132.555 9.28104 130.556 7.13654 129.063 4.48015C128.24 3.01436 127.41 1.55142 126.658 0.00292969C141.843 10.4474 157.026 20.8933 172.211 31.3378C172.261 31.3021 172.312 31.2679 172.362 31.2322C169.88 28.4475 168.232 25.2878 168.005 21.4893C168.048 21.4579 168.091 21.428 168.135 21.3966L184.11 37.8796C184.157 37.8483 184.203 37.8155 184.25 37.7841C184.05 37.2979 183.912 36.7689 183.638 36.3311C182.931 35.2019 182.843 34.1111 183.5 32.9091C183.843 32.2817 184.037 31.5559 184.223 30.8544C184.36 30.3368 184.679 30.1457 185.131 30.0559C185.546 29.9732 185.96 29.8762 186.349 29.6952C184.918 29.3715 183.487 29.0492 182.028 28.7199C182.574 27.7161 189.59 22.5687 192.061 21.3253C191.994 21.6162 191.947 21.8515 191.884 22.0825C191.215 24.602 190.535 27.12 189.878 29.6438C189.772 30.0516 189.832 30.4281 190.081 30.8401C192.428 34.7199 194.214 38.8749 195.661 43.1881C195.807 43.623 195.959 44.0565 196.226 44.4757C196.238 44.259 196.263 44.0408 196.259 43.8241C196.227 42.2599 196.207 40.6943 196.144 39.1315C196.126 38.6795 196.406 38.5869 196.694 38.4386C199.819 36.8288 202.943 35.2161 206.069 33.6049C207.129 33.0588 208.191 32.5155 209.356 31.9167C209.063 33.1329 208.367 33.9585 207.588 34.7028C206.82 35.4357 205.988 36.1002 205.218 36.8787C220.315 31.6942 235.413 26.5112 250.511 21.3268L250.576 21.4522C248.196 23.4926 246.115 25.8867 243.504 27.6533C241.776 28.8225 239.838 29.4713 237.897 30.1215C234.072 31.4034 230.248 32.6852 226.425 33.9685C226.221 34.0369 226.019 34.1196 225.817 34.1966C225.83 34.2465 225.846 34.295 225.859 34.3449C231.026 33.1529 236.192 31.9594 241.358 30.7674C241.375 30.7945 241.39 30.8202 241.407 30.8473C240.707 31.4133 240.015 31.9894 239.306 32.5455C237.775 33.7489 236.323 35.0621 234.604 36.0032C232.74 37.0241 230.761 37.6187 228.692 37.9723C226.205 38.3972 223.727 38.8663 221.245 39.3169C218.74 39.7703 216.235 40.2223 213.73 40.6786C213.416 40.7356 213.104 40.8126 212.803 41.0023C219.687 40.2993 226.573 39.5964 233.58 38.8806C233.336 39.0688 233.185 39.1986 233.022 39.3098C231.661 40.2337 230.334 41.2162 228.928 42.0617C226.47 43.5417 223.797 44.3074 220.937 44.3545C217.23 44.4144 213.523 44.4885 209.817 44.5612C209.627 44.5655 209.438 44.6154 209.25 44.6454C209.254 44.6938 209.258 44.7423 209.262 44.7908C215.225 44.9719 221.19 45.1516 227.261 45.3355C227.063 45.4838 226.937 45.5964 226.798 45.6791C224.892 46.8127 223.001 47.9676 220.845 48.5637C218.506 49.211 216.158 49.3978 213.755 48.9971C212.352 48.7633 210.925 48.672 209.511 48.5109C208.05 48.3441 206.59 48.1715 205.131 48.0033C204.908 47.9776 204.684 47.9619 204.461 47.9434C204.454 47.989 204.449 48.0347 204.442 48.0789C210.055 49.1625 215.668 50.2462 221.281 51.3284C221.294 51.374 221.307 51.4197 221.32 51.4653C220.589 51.8061 219.87 52.1768 219.124 52.4805C216.56 53.5271 213.879 53.9049 211.156 53.6012C209.551 53.4216 207.975 52.9411 206.395 52.5604C204.443 52.0912 202.498 51.5865 200.55 51.0974C200.534 51.1416 200.519 51.1844 200.505 51.2286C205.461 53.3075 210.419 55.3878 215.488 57.5152C213.922 58.1383 212.437 58.5205 210.881 58.6317C207.943 58.8427 205.275 57.9416 202.68 56.644C201.135 55.8712 199.551 55.1825 197.983 54.4582C197.89 54.4154 197.788 54.3954 197.637 54.4724C201.676 57.4069 205.713 60.3413 209.833 63.3342C208.574 63.6921 207.4 63.8233 206.204 63.7848C203.794 63.7092 201.719 62.7624 199.841 61.2496C198.394 60.0832 196.903 58.9739 195.428 57.8432C195.328 57.7662 195.206 57.722 195.031 57.7491C198.182 61.405 201.336 65.0609 204.54 68.7767C203.603 68.9721 202.743 68.8266 201.9 68.6726C199.173 68.1736 197.052 66.6536 195.313 64.4806C194.452 63.4041 193.518 62.3903 192.618 61.348C192.573 61.3765 192.528 61.405 192.483 61.4335C194.737 65.6584 196.992 69.8846 199.284 74.1808C197.957 74.1779 196.806 73.7687 195.717 73.1727C193.98 72.2216 192.681 70.8286 191.839 68.9863C191.379 67.9839 190.888 66.9987 190.411 66.0063C190.358 66.0262 190.304 66.0462 190.252 66.0662C191.652 70.388 193.053 74.7097 194.502 79.1784C192.618 78.6565 191.172 77.7055 189.951 76.2982C188.72 74.878 188.186 73.1342 187.525 71.4189C187.662 72.1518 187.776 72.8889 187.941 73.6147C188.71 77.0268 188.457 80.3704 187.386 83.677C186.974 84.9503 186.62 86.2436 186.116 87.5454C185.66 84.8106 185.203 82.0758 184.746 79.3395C184.723 79.3367 184.698 79.3338 184.674 79.331C184.654 79.4607 184.618 79.5905 184.616 79.7217C184.604 80.8139 184.596 81.9061 184.589 82.9969C184.569 86.2963 184.551 89.5958 184.531 92.8952C184.514 95.459 184.553 98.0241 184.463 100.585C184.318 104.721 182.989 108.446 180.549 111.739C180.528 111.767 180.467 111.764 180.366 111.789V95.0825C180.326 95.0797 180.286 95.0754 180.246 95.0725C180.182 95.5417 180.098 96.0079 180.056 96.4784C179.815 99.1904 179.665 101.914 179.331 104.614C178.757 109.277 177.361 113.69 175.132 117.798C174.406 119.138 173.567 120.414 172.758 121.705C172.46 122.178 172.099 122.61 171.673 123.028C173.427 112.497 175.182 101.965 176.936 91.4323C176.885 91.4223 176.832 91.4109 176.781 91.4009C173.838 103.545 170.895 115.688 167.911 128C167.37 126.928 167.052 125.961 166.814 124.962C166.208 122.416 166.355 119.9 167.002 117.38C168.74 110.627 170.45 103.867 172.17 97.1101C172.197 97.0017 172.193 96.8834 172.204 96.7708C172.161 96.7579 172.117 96.7437 172.074 96.7308C169.364 104.341 166.652 111.951 163.942 119.56C163.893 119.57 163.843 119.582 163.795 119.592C163.564 118.976 163.287 118.374 163.11 117.742C162.364 115.076 162.392 112.421 163.313 109.797C165.386 103.893 167.463 97.9913 169.537 92.0868C169.611 91.8743 169.659 91.6519 169.719 91.4337C169.676 91.4152 169.635 91.3981 169.592 91.3796C166.364 98.0298 163.136 104.68 159.868 111.414C159.225 110.162 158.905 108.935 158.808 107.662C158.644 105.514 159.059 103.492 160.009 101.552C163.947 93.5184 167.845 85.4651 171.756 77.4175C171.874 77.1751 171.973 76.9241 172.081 76.6775C172.035 76.6518 171.991 76.6247 171.946 76.599C170.453 78.9232 168.958 81.2459 167.466 83.5701C167.424 83.5573 167.384 83.543 167.342 83.5302C167.445 82.8714 167.542 82.2112 167.65 81.5525C167.929 79.8514 168.155 78.139 168.509 76.4564C168.99 74.1722 170.045 72.1646 171.54 70.4022C171.994 69.8675 172.416 69.3057 172.846 68.7496C172.925 68.6484 172.971 68.5201 173.008 68.4488C172.441 68.9849 171.821 69.5011 171.281 70.0957C169.869 71.6556 168.362 73.0429 166.292 73.619C165.102 73.9498 163.903 74.0581 162.572 73.9954C163.236 73.2454 163.839 72.5467 164.46 71.868C166.955 69.1403 169.455 66.4183 171.95 63.6921C172.103 63.5238 172.229 63.3271 172.368 63.1431C172.319 63.0947 172.271 63.0447 172.224 62.9963L172.211 62.9934Z" fill="url(#paint1_linear_698_880)"></path><path d="M24.7591 45.7918V59.6013H20.6693V38.3203H25.9863C27.7393 41.9263 29.5131 45.5765 31.3353 49.3266C33.1491 45.5936 34.9173 41.9534 36.6911 38.3018H41.9957V59.6042H37.9239V45.7704L37.7952 45.7376C37.6803 45.9544 37.5586 46.1683 37.4507 46.3878C36.0809 49.2011 34.7043 52.0115 33.3553 54.8361C33.1657 55.2339 32.9582 55.3979 32.5237 55.3765C31.742 55.3394 30.9548 55.3337 30.1744 55.3779C29.7026 55.405 29.4937 55.2111 29.2945 54.7933C27.9538 51.9858 26.5854 49.1939 25.224 46.3978C25.1216 46.1868 25.0165 45.9786 24.9127 45.7676C24.8615 45.7747 24.8103 45.7819 24.7591 45.7876V45.7918Z" fill="white"></path><path d="M90.9481 71.5345V85.2342H86.7697V63.9717H92.3275C94.5537 68.5573 96.7937 73.1671 99.0324 77.7783C99.0683 77.7726 99.1043 77.7684 99.1403 77.7627V63.9831H103.351V85.2342C103.151 85.2513 102.955 85.2841 102.76 85.2841C101.308 85.2884 99.857 85.2641 98.4056 85.2998C97.9393 85.3112 97.718 85.1415 97.5187 84.728C95.5042 80.5445 93.4718 76.3696 91.4434 72.1932C91.3328 71.9665 91.2179 71.7427 91.1058 71.5174C91.0533 71.5231 91.0007 71.5273 90.9481 71.533V71.5345Z" fill="white"></path><path d="M86.7946 38.2817C87.0866 38.2817 87.337 38.2817 87.5888 38.2817C90.1456 38.2817 92.7025 38.2774 95.2607 38.2817C98.739 38.2888 102.269 40.7741 103.133 44.872C103.875 48.3839 102.833 51.3497 100.092 53.6354C100.004 53.7081 99.9275 53.7951 99.8141 53.9063C100.976 55.7828 102.132 57.6492 103.344 59.6069C103.096 59.6226 102.927 59.6426 102.758 59.6426C101.515 59.6454 100.269 59.6198 99.0268 59.6568C98.5509 59.6711 98.2825 59.5043 98.0417 59.0922C97.3901 57.98 96.6886 56.8978 96.0162 55.797C95.8626 55.5446 95.7159 55.3522 95.3783 55.3564C93.9961 55.3764 92.6139 55.3707 91.2318 55.3778C91.1681 55.3778 91.1045 55.4135 90.9675 55.452V59.5898H86.796V38.2817H86.7946ZM90.9924 51.1045C91.9415 51.1045 92.8561 51.1216 93.7706 51.0988C94.5025 51.0803 95.2483 51.0959 95.9594 50.9519C97.8757 50.5641 99.1984 48.7932 99.1804 46.7556C99.1624 44.7694 97.8093 43.064 95.8986 42.6833C95.3424 42.5721 94.7626 42.565 94.1912 42.555C93.1397 42.5365 92.0882 42.5493 90.9924 42.5493V51.1045Z" fill="white"></path><path d="M117.915 38.2815C123.334 38.2244 128.256 42.5462 128.26 48.9484C128.265 55.2792 123.368 59.7864 117.592 59.6538C112.175 59.5297 107.409 55.0482 107.479 48.7944C107.547 42.8014 112.257 38.1674 117.915 38.2829V38.2815ZM111.691 48.9712C111.588 52.1751 114.183 55.3904 117.914 55.3562C121.528 55.3234 124.072 52.3277 124.071 48.9484C124.07 45.4507 121.264 42.5277 117.892 42.5533C114.183 42.5819 111.577 45.753 111.689 48.9712H111.691Z" fill="white"></path><path d="M147.173 85.2856C145.634 85.2856 144.188 85.2984 142.742 85.267C142.585 85.2642 142.377 85.0261 142.286 84.8464C141.732 83.757 141.19 82.6605 140.679 81.5484C140.497 81.152 140.271 81.0008 139.838 81.0037C137.005 81.0222 134.171 81.0236 131.339 81.0037C130.898 81.0008 130.687 81.1719 130.506 81.5626C129.93 82.8003 129.317 84.0208 128.711 85.2642H124.049C124.182 84.979 124.291 84.7352 124.407 84.4956C127.25 78.6339 130.088 72.7693 132.951 66.9161C133.186 66.4342 133.214 66.0663 132.942 65.6072C132.646 65.1067 132.428 64.5578 132.126 63.9275C133.009 63.9275 133.802 63.9275 134.594 63.9275C135.148 63.9275 135.703 63.9575 136.252 63.9175C136.689 63.8862 136.888 64.0673 137.079 64.4608C139.961 70.4352 142.863 76.3996 145.759 82.3668C146.218 83.3136 146.676 84.2618 147.173 85.287V85.2856ZM135.593 71.0925C134.654 73.0302 133.775 74.8439 132.866 76.7175H138.319C137.411 74.8454 136.533 73.0317 135.593 71.0925Z" fill="white"></path><path d="M8.1285 63.9458H12.7967C16.2335 71.0281 19.6675 78.1047 23.1542 85.2867C21.9546 85.2867 20.8519 85.2055 19.7658 85.311C18.7668 85.4079 18.2162 85.0771 17.8772 84.1018C17.5853 83.2649 17.1065 82.4977 16.7454 81.6836C16.5324 81.2031 16.2681 80.9878 15.705 80.9963C12.9406 81.0348 10.1762 81.0234 7.4118 81.0049C6.94415 81.002 6.67436 81.1161 6.46129 81.5937C5.90924 82.8357 5.28248 84.042 4.68892 85.2568H0.0567017C0.174306 84.9959 0.265622 84.7834 0.36524 84.5767C3.21818 78.6935 6.06835 72.8076 8.93789 66.9316C9.16895 66.4596 9.21322 66.0817 8.94481 65.6198C8.65287 65.1179 8.43012 64.5746 8.1285 63.9458ZM11.5778 71.0751C10.6355 73.0214 9.75005 74.848 8.84796 76.7087H14.3131C13.3944 74.8166 12.5103 72.9943 11.5778 71.0751Z" fill="white"></path><path d="M82.6051 85.2566H77.9314C77.3448 84.046 76.7415 82.8341 76.1701 81.605C75.9681 81.1686 75.7135 80.9947 75.221 81.0004C72.4345 81.0289 69.6465 81.026 66.86 81.0032C66.3772 80.999 66.1253 81.1472 65.922 81.6107C65.4515 82.6843 64.9009 83.7209 64.4056 84.7846C64.2381 85.1454 64.0389 85.3093 63.6238 85.2994C62.2901 85.2694 60.9549 85.288 59.516 85.288C59.6419 85.0028 59.7332 84.7789 59.8384 84.5622C62.6802 78.699 65.5152 72.833 68.3778 66.9813C68.6352 66.4566 68.678 66.0488 68.3695 65.5454C68.0803 65.0735 67.8811 64.543 67.6127 63.9741H72.2767C75.7052 71.0407 79.1407 78.1173 82.6051 85.258V85.2566ZM73.789 76.7256C72.8551 74.805 71.9723 72.9913 71.0412 71.0764C70.0948 73.0312 69.2135 74.8549 68.3086 76.7256H73.7904H73.789Z" fill="white"></path><path d="M46.253 38.313H60.0334C59.3693 39.6775 58.7481 40.9936 58.0798 42.2826C57.9982 42.4408 57.6689 42.5335 57.4531 42.5349C55.4953 42.5535 53.5361 42.5463 51.5784 42.5463C51.2117 42.5463 50.8451 42.5463 50.4106 42.5463V46.7969H55.8177V51.0787H50.4051V55.3549H59.9712V59.6011H46.253V38.3115V38.313Z" fill="white"></path><path d="M32.8946 85.2639H28.665V68.2148H21.7831C21.0982 66.8032 20.4272 65.4172 19.7202 63.9614H39.735V68.1592H32.8946V85.2624V85.2639Z" fill="white"></path><path d="M75.7233 42.5306V59.6082H71.5448V42.5677H62.5613C63.2849 41.0705 63.9476 39.6989 64.62 38.3101H82.5858V42.5306H75.7233Z" fill="white"></path><path d="M107.5 63.9546H127.414C127.342 64.1428 127.291 64.3125 127.214 64.4693C126.697 65.5473 126.16 66.6153 125.662 67.7032C125.491 68.0768 125.272 68.2065 124.871 68.2008C123.028 68.1794 121.185 68.1908 119.342 68.1908C119.094 68.1908 118.845 68.1908 118.52 68.1908V85.2528H114.394V68.2308H107.5V63.9546Z" fill="white"></path><path d="M43.9009 63.9428H47.9922C47.9922 66.7903 47.9922 69.6263 47.9922 72.461C47.9922 75.2956 47.9922 78.1017 47.9922 80.9933H56.9592C56.2369 82.4834 55.5659 83.8707 54.8907 85.2638H43.9009V63.9414V63.9428Z" fill="white"></path><path d="M70.1419 100.23H68.7888V89.6399C68.8455 89.6199 68.9077 89.58 68.97 89.5771C69.8352 89.5401 70.4647 89.927 70.8586 90.7378C71.7524 92.5786 72.6476 94.4194 73.5441 96.2588C73.6465 96.4669 73.7558 96.6723 73.9191 96.9874C75.1477 94.4636 76.332 92.0325 77.5136 89.6028H79.0646V100.196H77.746V92.7982C77.6962 92.7796 77.645 92.7625 77.5952 92.744C76.5755 94.6105 75.7385 96.5781 74.7589 98.4617C74.7091 98.4774 74.6662 98.5016 74.6219 98.5031C73.5787 98.5487 72.8265 98.0957 72.3653 97.1442C71.6611 95.6898 70.9596 94.234 70.1419 92.791V100.23Z" fill="white"></path><path d="M93.2587 100.24V89.6302C93.4303 89.6102 93.6032 89.5731 93.7762 89.5717C94.9273 89.566 96.0798 89.5959 97.231 89.5631C99.3825 89.5018 100.936 91.9443 99.7726 94.1174C99.6951 94.2614 99.6149 94.404 99.5333 94.5508C99.7187 94.7561 99.9041 94.9558 100.084 95.1597C100.925 96.1164 101.083 97.24 100.635 98.3893C100.178 99.557 99.2759 100.221 98.0155 100.236C96.4534 100.253 94.8914 100.24 93.2587 100.24ZM94.7143 98.8099C95.8682 98.8099 96.9944 98.8755 98.1109 98.7885C98.9826 98.7201 99.5263 97.8888 99.4475 97.0275C99.3838 96.3246 98.6063 95.5532 97.8688 95.6516C97.3472 95.7215 96.8104 95.6644 96.2805 95.6644C95.7602 95.6644 95.24 95.6644 94.7156 95.6644V98.8085L94.7143 98.8099ZM94.7143 94.1402C94.955 94.1559 95.1141 94.1758 95.2718 94.1744C95.9401 94.1715 96.6084 94.1844 97.2753 94.1473C98.0888 94.1017 98.6865 93.5128 98.7529 92.7485C98.8235 91.9372 98.3918 91.1872 97.5824 91.0845C96.6443 90.9662 95.6814 91.0574 94.7143 91.0574V94.1402Z" fill="white"></path><path d="M140.912 97.0629V100.208H139.598V89.5885C141.126 89.5885 142.654 89.4601 144.151 89.6255C145.582 89.7824 146.576 90.7506 146.993 92.1907C147.422 93.675 147.07 94.9968 145.976 96.0819C145.814 96.243 145.627 96.377 145.404 96.5638C145.984 97.7744 146.56 98.9749 147.156 100.217H145.57C145.122 99.2901 144.696 98.3775 144.235 97.4821C144.144 97.3053 143.928 97.0871 143.761 97.08C142.846 97.0415 141.927 97.0614 140.912 97.0614V97.0629ZM140.97 95.5728C141.878 95.5728 142.747 95.5614 143.615 95.5757C144.627 95.5914 145.604 94.7672 145.763 93.4754C145.896 92.396 145.085 91.2396 143.95 91.0828C142.987 90.9502 141.994 91.0557 140.97 91.0557V95.5743V95.5728Z" fill="white"></path><path d="M49.8683 89.5942H51.6462C53.3563 93.1204 55.0623 96.6365 56.7987 100.213H55.2145C54.8105 99.3899 54.3663 98.5415 53.9776 97.666C53.7894 97.2425 53.5652 97.0686 53.0948 97.0786C51.53 97.1114 49.9624 97.1057 48.3976 97.0814C47.9756 97.0743 47.7321 97.1941 47.5508 97.6061C47.162 98.4887 46.7165 99.3443 46.289 100.221H44.7159C46.4454 96.6551 48.1458 93.146 49.8683 89.5928V89.5942ZM50.751 91.0386C49.9832 92.627 49.2914 94.06 48.5802 95.5329H52.9274C52.1997 94.0301 51.5189 92.6242 50.751 91.0386Z" fill="white"></path><path d="M123.998 89.623V90.9562H117.868V94.1716H121.908V95.6488H117.846V98.817H123.984V100.184H116.407V89.623H123.996H123.998Z" fill="white"></path><path d="M23.1583 89.5874H24.4547V94.1116H30.6933V89.6159H32.0298V100.199H30.7293V95.7243H24.5004V100.204H23.1583V89.5859V89.5874Z" fill="white"></path></g></g><defs><linearGradient id="paint0_linear_698_880" x1="131.599" y1="117.684" x2="194.07" y2="7.34825" gradientUnits="userSpaceOnUse"><stop stop-color="#610000"></stop><stop offset="1" stop-color="#DC1E35"></stop></linearGradient><linearGradient id="paint1_linear_698_880" x1="131.599" y1="117.684" x2="194.07" y2="7.34825" gradientUnits="userSpaceOnUse"><stop stop-color="#610000"></stop><stop offset="1" stop-color="#DC1E35"></stop></linearGradient><clipPath id="clip0_698_880"><rect width="250" height="128" fill="white"></rect></clipPath><clipPath id="clip1_698_880"><rect width="250.577" height="128" fill="white"></rect></clipPath></defs></svg> 