<?xml version="1.0" encoding="utf-8"?>
<svg width="605" height="120" xmlns="http://www.w3.org/2000/svg" xmlns:svg="http://www.w3.org/2000/svg">
 <style type="text/css">.st1{fill:#FFFFFF;}</style>
 <g class="layer">
  <title>Layer 1</title>
  <g id="svg_1">
   <path class="st1" d="m76.8,113.5l-39.9,-54.7l0,54.7l-32.7,0l0,-108l33.7,0l37.6,51.2l0,-51.2l32.7,0l0,108l-31.4,0z" id="svg_2"/>
   <path class="st1" d="m179.2,115.4c-8.4,0 -16.3,-1.4 -23.6,-4c-7.3,-2.7 -13.6,-6.5 -18.9,-11.4c-5.3,-4.9 -9.4,-10.8 -12.5,-17.6c-3,-6.9 -4.5,-14.4 -4.5,-22.8c0,-8.3 1.5,-15.9 4.5,-22.8c3,-6.9 7.2,-12.7 12.5,-17.6c5.3,-4.9 11.6,-8.7 18.9,-11.4c7.3,-2.7 15.1,-4 23.6,-4c7.1,0 13.4,0.9 18.7,2.8c5.3,1.9 10,4.3 14,7.3c4,3 7.3,6.3 10,10.1c2.6,3.8 4.8,7.5 6.4,11.2l-28.2,13.1c-0.6,-2 -1.6,-4 -3,-6c-1.3,-1.9 -2.9,-3.6 -4.8,-5c-1.8,-1.4 -3.9,-2.5 -6.2,-3.4c-2.3,-0.9 -4.6,-1.3 -7,-1.3c-3.9,0 -7.4,0.7 -10.7,2.1c-3.2,1.4 -6,3.3 -8.3,5.7c-2.3,2.4 -4.1,5.3 -5.3,8.6c-1.2,3.3 -1.9,6.8 -1.9,10.6c0,3.8 0.6,7.3 1.9,10.6c1.2,3.3 3,6.2 5.3,8.6c2.3,2.4 5.1,4.3 8.3,5.7c3.2,1.4 6.8,2.1 10.7,2.1c2.4,0 4.7,-0.4 7,-1.3c2.3,-0.9 4.3,-2 6.2,-3.4c1.8,-1.4 3.4,-3 4.8,-4.9c1.3,-1.9 2.3,-3.9 3,-6.1l28.2,13c-1.6,3.6 -3.8,7.2 -6.4,11c-2.6,3.8 -5.9,7.2 -9.9,10.2c-3.9,3 -8.6,5.5 -14,7.4c-5.4,2 -11.6,2.9 -18.8,2.9z" id="svg_3"/>
   <path class="st1" d="m238.5,113.5l0,-108l57.6,0c6.3,0 11.8,1 16.7,2.9c4.9,1.9 8.9,4.6 12.2,8c3.3,3.4 5.8,7.3 7.4,11.8c1.7,4.5 2.5,9.3 2.5,14.3c0,5.1 -0.8,9.8 -2.5,14.2c-1.7,4.4 -4.2,8.3 -7.4,11.7c-3.3,3.4 -7.4,6.1 -12.2,8c-4.9,1.9 -10.4,2.9 -16.7,2.9l-24.9,0l0,34l-32.7,0l0,0.2zm53.4,-62.5c2.8,0 5.2,-0.7 7,-2.1c1.9,-1.4 2.8,-3.5 2.8,-6.3c0,-2.9 -0.9,-5.1 -2.8,-6.5c-1.9,-1.4 -4.2,-2.1 -7,-2.1l-20.7,0l0,17l20.7,0z" id="svg_4"/>
   <path class="st1" d="m428.1,113.5l-13.9,-61.2l-13.9,61.2l-34.3,0l-31,-108l36.6,0l13.9,66.1l16.4,-66.1l24.6,0l16.4,66.1l13.8,-66.1l36.8,0l-30.9,108l-34.5,0z" id="svg_5"/>
   <path class="st1" d="m500.2,113.5l0,-108l65.6,0c5.6,0 10.4,0.8 14.5,2.5c4,1.7 7.4,3.8 10,6.5c2.6,2.6 4.5,5.6 5.7,8.9c1.2,3.3 1.9,6.5 1.9,9.6c0,6.8 -1.8,12.3 -5.3,16.6c-3.5,4.3 -7.9,7 -13.2,8.2c2.9,0.4 5.6,1.4 8.1,2.9c2.5,1.5 4.7,3.4 6.6,5.7c1.9,2.3 3.3,5 4.4,8c1,3 1.5,6.3 1.5,9.7c0,3.8 -0.6,7.4 -1.9,10.9c-1.3,3.5 -3.3,6.6 -5.9,9.4c-2.6,2.8 -6,4.9 -10,6.6c-4,1.6 -8.7,2.4 -14.1,2.4l-67.9,0l0,0.1zm57.9,-68.2c1.7,0 3.2,-0.6 4.5,-1.8c1.3,-1.2 1.9,-2.8 1.9,-4.7c0,-1.8 -0.6,-3.3 -1.9,-4.5c-1.3,-1.1 -2.8,-1.7 -4.5,-1.7l-25.3,0l0,12.6l25.3,0l0,0.1zm1,41c2.4,0 4.2,-0.6 5.6,-1.9c1.3,-1.2 2,-2.9 2,-4.9c0,-1.9 -0.7,-3.6 -2,-4.9c-1.3,-1.3 -3.2,-2 -5.6,-2l-26.2,0l0,13.8l26.2,0l0,-0.1z" id="svg_6"/>
  </g>
 </g>
</svg>