<?xml version="1.0" encoding="utf-8"?>
<!-- Generator: Adobe Illustrator 24.0.1, SVG Export Plug-In . SVG Version: 6.00 Build 0)  -->
<svg version="1.1" id="Layer_1" xmlns="http://www.w3.org/2000/svg" xmlns:xlink="http://www.w3.org/1999/xlink" x="0px" y="0px"
	 viewBox="0 0 1011.2 197.1" style="enable-background:new 0 0 1011.2 197.1;" xml:space="preserve">
<style type="text/css">
	.st0{fill:#1572A4;}
	.st1{fill:#1772A4;}
	.st2{fill:#B1B1B4;}
	.st3{fill:#1173AA;}
	.st4{fill:#AEAFB0;}
	.st5{fill:#B0B2B3;}
</style>
<path class="st0" d="M100.6,0h69c1.1,0,2.2,0,3.3,0c6.4-0.1,39.1,0.7,26.5,30.4c-0.7,1.6-1.3,3.2-1.9,4.8
	c-2.8,7.4-12.4,29.8-29.9,45.2c-11.2,9.9-25.7,15.1-40.7,15.1H82.5l15.8-30.4h32.9c0,0,16.9,0,23.9-23.2c0,0,4.3-10.6-11.7-11H86.6
	L100.6,0z"/>
<polygon class="st0" points="238.7,0 277.8,0 224.9,97 312,97 295.4,128 170.8,128 "/>
<path class="st1" d="M439.1,0h51.6v128h-42.4v-23.2h-79.1l-24,23.2h-42.1L439.1,0z M399.3,78.4h48.8V30.7L399.3,78.4z"/>
<path class="st2" d="M318.2,168h11.2V197h-9.2v-5.3h-17.3l-5.2,5.3h-9.2L318.2,168z M309.5,185.8h10.6V175L309.5,185.8z"/>
<path class="st2" d="M807,168h11.2V197H809v-5.3h-17.3l-5.2,5.3h-9.2L807,168z M798.3,185.8H809V175L798.3,185.8z"/>
<polygon class="st0" points="517.8,0 565,0 577.8,52.6 648.5,0 694.5,0 578.6,85.3 555.3,128 517.8,128 541.5,83.3 "/>
<polygon class="st2" points="925.7,167.6 936.6,167.6 939.6,179.8 955.9,167.6 966.5,167.6 939.7,187.3 934.4,197.1 925.7,197.1 
	931.2,186.8 "/>
<polygon class="st0" points="707.7,0 692.2,28.9 830.6,28.9 844.9,0 "/>
<polygon class="st0" points="680.4,49 664.9,77.9 799.2,77.9 815.5,49 "/>
<polygon class="st0" points="653.4,99.1 637.8,128 775.2,128 791.5,99.1 "/>
<path class="st3" d="M993.1,0c3.5,0,6.9,0.7,10,2.2c10.5,5.1,8.1,14.5,7,17.5c-0.4,1.1-0.8,2.1-1.1,3.2c-8.9,27-24.8,43-24.8,43
	c-6.6,6.6-22.5,12-22.5,12c23,5.1-7.7,50-7.7,50h-38.8c0,0,6.6-12,12-23.5c4.5-9.6-4.7-10.1-7.9-10c-1,0-2.1,0.1-3.1,0L856.9,94
	L839,128h-38.3L868.9,0H993.1z M890.6,30.9l-15.8,31.1H934c0,0,19.9,3.1,28.1-15.6c0,0,9.7-15.6-6.1-15.6H890.6z"/>
<polygon class="st2" points="354.9,197 370.9,168 382.5,168 388.3,188.5 390.8,188.5 401.9,168 408.5,168 393.7,197 381.7,197 
	376,176.6 372.6,176.6 362.2,197 "/>
<polygon class="st2" points="844.9,196.6 860.9,167.6 872.5,167.6 878.3,188.1 880.8,188.1 891.9,167.6 898.5,167.6 883.7,196.6 
	871.7,196.6 866,176.1 862.6,176.1 852.2,196.6 "/>
<path class="st2" d="M465.9,168c11.9,0-0.4,19.1-0.4,19.1c-5.4,10.4-18,9.9-18,9.9h-25.9l15.5-28.9C437.1,168,454,168,465.9,168z
	 M440.5,173.5l-7.1,16.7h16c0,0,3,0.2,5.7-2.2c0.8-0.7,1.4-1.6,2-2.5l3.7-6.5c0,0,3.2-4.6-3.1-5.4H440.5z"/>
<path class="st2" d="M564.3,177.3c0,0,5.3-9-2-9.2s-19.7,0-19.7,0s-8.2-0.7-11.9,5.4l-7.1,11.5c-1.2,1.9-1.8,4.1-1.5,6.3
	c0.4,2.7,1.9,5.6,7.1,5.6h12.8c3.7,0,7.5-0.9,10.7-2.8c2.7-1.6,5.3-4,6.6-7.7h-5.8c0,0-1.7,3.6-6.8,3.8c-3.7,0.1-9.5,0.1-12.5,0
	c-2.2,0-3.9-2-3.6-4.1l0,0c0.2-1.3,0.6-2.6,1.3-3.7l2.9-4.8c0.8-1.4,2-2.6,3.4-3.4c0.6-0.3,1.3-0.6,1.9-0.6h13.7
	c0.8,0,1.6,0.2,2.2,0.6c0.8,0.5,1.6,1.4,1.6,3.1H564.3z"/>
<path class="st2" d="M595.3,187.5l5-8.8c0.7-1.4,1.9-2.3,3-2.8c1.1-0.5,2.4-0.8,3.7-0.8h12.4c2.7,0,1.5,2.8,1.5,2.8l-4.9,8.6
	c-0.1,0.2-0.2,0.3-0.3,0.5c-1.4,1.9-3.9,2.9-6.4,2.9h-12C594.7,190,595.3,187.5,595.3,187.5z M587.9,197l22.4-0.1
	c4.7,0,9.3-2,11.9-5.7c0.2-0.3,0.4-0.6,0.6-1l9.1-16.8c0,0,2.2-5.5-2.8-5.5l-23.2,0.1c-2.4,0-4.8,0.5-6.9,1.5
	c-2.1,1-4.3,2.7-5.5,5.5l-9.3,17.1C584.3,192.2,583.1,197,587.9,197z"/>
<polygon class="st2" points="648.3,197 655,197 665.9,175.9 668.1,175.9 668.1,197 674,197 697.9,175.9 688.7,197 694.1,197 
	710.5,168 698.9,168 679.4,186.1 676.8,186.1 675.7,168 663.3,168 "/>
<path class="st4" d="M762.4,168c1.1,0,2.2,0.1,3.3,0.5c6.2,2.1,1.7,7.5-1.2,13.1c-0.8,1.5-1.8,2.8-2.8,3.7c-2.6,2.5-6.2,3.7-9.8,3.6
	l-17.3-0.2l-4.3,8.3l-6.6,0l15.6-29H762.4z M742.9,174l-3.9,9h12.8c1.4,0,2.9-0.3,4.1-1c1-0.6,2-1.5,2.8-2.9
	c0.9-1.8,0.3-3.1-0.6-3.9c-0.9-0.8-2-1.2-3.2-1.2H742.9z"/>
<polygon class="st5" points="0,127.2 51.1,31.7 16.9,31.7 61.8,0 105.2,0 36.8,127.2 "/>
</svg>
