<?xml version="1.0" encoding="utf-8"?>
<!-- Generator: Adobe Illustrator 24.0.1, SVG Export Plug-In . SVG Version: 6.00 Build 0)  -->
<svg version="1.1" id="player_xA0_Image_1_" xmlns="http://www.w3.org/2000/svg" xmlns:xlink="http://www.w3.org/1999/xlink"
	 x="0px" y="0px" viewBox="0 0 2361 621.8" style="enable-background:new 0 0 2361 621.8;" xml:space="preserve">
<style type="text/css">
	.st0{fill:#016AA4;}
	.st1{fill:#FFFFFF;}
</style>
<path class="st0" d="M2262.2,621.8H98.8C44.2,621.8,0,577.6,0,523V98.8C0,44.2,44.2,0,98.8,0h2163.4c54.5,0,98.8,44.2,98.8,98.8V523
	C2361,577.6,2316.8,621.8,2262.2,621.8z"/>
<image style="display:none;overflow:visible;" width="1024" height="1024" id="player_xA0_Image" xlink:href="95A887B1.jpg"  transform="matrix(1 0 0 1 681.9911 -178.0729)">
</image>
<polygon class="st1" points="448.4,40 433.7,96.5 380.5,96.5 393.3,40 "/>
<polygon class="st1" points="427.5,109.9 412.8,166.4 359.6,166.4 372.4,109.9 "/>
<polygon class="st1" points="406.6,179.7 391.9,236.2 338.7,236.2 351.5,179.7 "/>
<polygon class="st1" points="382.9,249.6 368.1,306.1 315,306.1 327.8,249.6 "/>
<polygon class="st1" points="358.2,319.4 343.5,375.9 290.3,375.9 303.1,319.4 "/>
<polygon class="st1" points="335.4,389.3 320.7,445.8 267.5,445.8 280.3,389.3 "/>
<polygon class="st1" points="311.6,459.1 296.9,515.6 243.7,515.6 256.6,459.1 "/>
<polygon class="st1" points="530.5,40 514.2,96.5 455.5,96.5 469.7,40 "/>
<polygon class="st1" points="506.3,109.9 490.8,166.4 434.6,166.4 448.2,109.9 "/>
<polygon class="st1" points="487,179.7 471.1,236.2 413.7,236.2 427.6,179.7 "/>
<polygon class="st1" points="464.1,249.6 448,306.1 390,306.1 404,249.6 "/>
<polygon class="st1" points="448.4,319.4 430.4,375.9 365.3,375.9 381,319.4 "/>
<polygon class="st1" points="427.5,389.3 409.1,445.8 342.5,445.8 358.6,389.3 "/>
<polygon class="st1" points="413.7,459.1 393.2,515.6 318.8,515.6 336.7,459.1 "/>
<polygon class="st1" points="372.2,41.6 358.3,98.1 308.2,98.1 320.3,41.6 "/>
<polygon class="st1" points="352.5,111.4 338.6,167.9 288.5,167.9 300.6,111.4 "/>
<polygon class="st1" points="332.8,181.3 318.9,237.8 268.8,237.8 280.9,181.3 "/>
<polygon class="st1" points="310.4,251.1 296.5,307.6 246.4,307.6 258.5,251.1 "/>
<polygon class="st1" points="287.1,321 273.3,377.5 223.1,377.5 235.2,321 "/>
<polygon class="st1" points="265.6,390.8 251.8,447.3 201.6,447.3 213.7,390.8 "/>
<polygon class="st1" points="243.3,460.7 229.4,517.2 179.2,517.2 191.3,460.7 "/>
<polygon class="st1" points="290.3,43.1 277.8,99.6 232.7,99.6 243.5,43.1 "/>
<polygon class="st1" points="272.5,112.9 260.1,169.5 215,169.5 225.8,112.9 "/>
<polygon class="st1" points="254.8,182.8 242.3,239.3 197.2,239.3 208.1,182.8 "/>
<polygon class="st1" points="234.7,252.6 222.2,309.2 177.1,309.2 188,252.6 "/>
<polygon class="st1" points="213.7,322.5 201.3,379 156.1,379 167,322.5 "/>
<polygon class="st1" points="194.4,392.3 181.9,448.9 136.8,448.9 147.7,392.3 "/>
<polygon class="st1" points="174.3,462.2 161.8,518.7 116.7,518.7 127.6,462.2 "/>
<polygon class="st1" points="224,41.6 213.4,98.1 175.4,98.1 184.6,41.6 "/>
<polygon class="st1" points="203.9,111.4 193.3,167.9 155.3,167.9 164.5,111.4 "/>
<polygon class="st1" points="183.8,181.3 173.3,237.8 135.2,237.8 144.4,181.3 "/>
<polygon class="st1" points="166.8,251.1 156.3,307.6 118.3,307.6 127.4,251.1 "/>
<polygon class="st1" points="146.6,321 136.1,377.5 98,377.5 107.2,321 "/>
<polygon class="st1" points="127.7,390.8 117.2,447.3 79.2,447.3 88.3,390.8 "/>
<polygon class="st1" points="108.2,460.7 97.6,517.2 59.6,517.2 68.8,460.7 "/>
<polygon class="st1" points="353,549.9 339,594.2 2078.8,594.2 2113,549.9 "/>
<g>
	<g>
		<path class="st1" d="M1017,103.6l6.8-16.8h-7.4l-12.3,16.8h-16.2l47.7-62.7h20.8l-23.2,62.7H1017z M1035.5,59.4l-12.8,18.7h4.5
			L1035.5,59.4z"/>
		<path class="st1" d="M1134.4,103.6l7.7-33.4l-18.9,33.4h-13.6l35.5-62.7h18.6l-6.8,28.6l16.2-28.6h13.7l-35.5,62.7H1134.4z"/>
		<path class="st1" d="M1284.4,40.9c2.5,0,4.7,0.3,6.5,0.9c1.8,0.6,3.1,1.4,4,2.5c0.9,1.1,1.3,2.4,1.3,3.9c0,1.5-0.6,3.2-1.6,5.1
			l-21.5,38c-2.1,3.8-5.4,6.8-9.8,9s-9.1,3.4-14.2,3.4h-20.7l35.5-62.7H1284.4z M1249.4,95.6c1.5,0,2.6-0.1,3.2-0.3
			c1.3-0.4,2.5-1.4,3.4-3l22.6-40c0.7-1.3,0.9-2.2,0.6-2.6c-0.4-0.4-1.5-0.7-3.4-0.7L1249.4,95.6z"/>
		<path class="st1" d="M1475.8,94.5c-0.8,1.4-1.9,2.7-3.5,3.9c-1.6,1.2-3.4,2.2-5.4,3.1c-2,0.9-4.2,1.6-6.6,2.1
			c-2.4,0.5-4.8,0.8-7.2,0.8c-5.8,0-9.8-1-12-3c-2.2-2-2.4-4.8-0.4-8.2l22.8-40.4c2.4-4.2,5.6-7.3,9.8-9.2c4.2-2,9.5-3,15.9-3
			c5.6,0,9.3,0.9,11.1,2.8s1.8,4.6-0.3,8.3l-6.4,11.4h-14.9l7-12.5c0.6-1,0.1-1.5-1.4-1.5c-1.6,0-2.7,0.5-3.3,1.5L1456.5,94
			c-0.3,0.5-0.3,0.9,0,1.1c0.3,0.3,0.8,0.4,1.5,0.4c1.5,0,2.5-0.5,3.1-1.5l8.8-15.5h14.9L1475.8,94.5z"/>
		<path class="st1" d="M1576.4,52.6c2.3-4.1,5.6-7.2,9.7-9.2c4.1-2,9.4-3,15.8-3c12.5,0,16.5,4,12,12.1L1591,93
			c-2,3.5-5.2,6.3-9.7,8.3c-4.5,2-9.6,3-15.4,3c-5.9,0-9.9-1-12.1-3c-2.2-2-2.3-4.8-0.3-8.3L1576.4,52.6z M1598.8,50.9
			c0.7-1.3,0.2-1.9-1.6-1.9c-1.9,0-3.2,0.6-3.9,1.9l-24.2,42.7c-0.7,1.3-0.1,1.9,1.8,1.9c1.8,0,3-0.6,3.7-1.9L1598.8,50.9z"/>
		<path class="st1" d="M1704.4,103.6l19.9-35.2l-28.4,35.2h-11.3l10.1-35.2l-19.9,35.2H1662l35.5-62.7h21l-10.9,32.5l24.9-32.5h22
			l-35.5,62.7H1704.4z"/>
		<path class="st1" d="M1847.7,40.9c5.7,0,9.8,0.3,12.3,0.8c5.1,1.2,6.1,4.6,2.9,10.3l-9.8,17.4c-0.8,1.4-1.6,2.6-2.4,3.5
			c-0.8,1-1.7,1.9-2.8,2.7c-1,0.8-2.2,1.5-3.5,2.2c-1.3,0.7-2.9,1.3-4.7,2c-0.5,0.2-1,0.3-1.4,0.4c-0.4,0.1-1.1,0.2-2.1,0.2
			c-1,0.1-2.3,0.1-3.9,0.1c-1.7,0-4,0-7,0l-13.1,23.1h-16l35.5-62.7H1847.7z M1830.3,71.5c1,0,1.8,0,2.2,0c0.5,0,0.9-0.1,1.3-0.2
			c1.6-0.4,2.9-1.4,3.9-3l8.5-15.1c0.7-1.3,0.8-2.1,0.3-2.6c-0.5-0.4-1.8-0.7-3.9-0.8L1830.3,71.5z"/>
		<path class="st1" d="M1935.8,103.6l6.8-16.8h-7.4l-12.3,16.8h-16.2l47.7-62.7h20.8l-23.2,62.7H1935.8z M1954.4,59.4l-12.8,18.7
			h4.5L1954.4,59.4z"/>
		<path class="st1" d="M2053.3,103.6l7.7-33.4l-18.9,33.4h-13.6l35.5-62.7h18.6l-6.8,28.6l16.2-28.6h13.7l-35.5,62.7H2053.3z"/>
		<path class="st1" d="M2189.9,78.8l-14,24.8h-16.4l14.1-24.9l7.8-37.8h15.6l-5.2,22.2l21-22.2h14.6L2189.9,78.8z"/>
	</g>
</g>
<path class="st1" d="M702.9,43.1c123.8-2.4,90.4,83.1,90.4,83.1s-18.4,63.2-39.5,138.7c-21.1,75.5-109.8,75.5-109.8,75.5h-85.2
	l-46.5,175.2H382.9L523.4,40L702.9,43.1z M620.4,109.9l-42.1,161.2c0,0,38.6,12.2,49.2-21.5l25.3-94.6c2-7.4,4.4-14.7,6.8-22
	C662.5,123.9,663.2,106.2,620.4,109.9z"/>
<polygon class="st1" points="846.9,41.6 968.1,41.6 839,518.7 715.2,515.6 "/>
<path class="st1" d="M1059.4,284.3H941.8l18.1-70.4c7.4-28.6,25.9-53.4,51.9-67.2c11.8-6.3,26.2-11,43.4-12.3
	c2.6-0.2,5.3-0.4,7.9-0.7c23.9-3.2,159.1-18.7,179.9,32.7c0,0,12.3,22.5-12.8,95.5c-3.2,9.3-6.1,18.7-8.7,28.2l-62.7,228.5h-107.1
	l2.6-14c0,0-28.9,29.7-136.6,11.9c-9-1.5-17.3-6.2-22.6-13.6c-6.5-9.1-10.8-24.1-3-48.5c3.4-10.6,6.2-21.3,9.1-32.1l5.5-20.8
	c5.2-19.7,14.8-38.1,28.7-53c8.8-9.4,19.8-18.3,33-23c0,0,26.5-15,65.8-25.8c15.4-4.2,30.4-10,44.6-17.3
	c10.4-5.2,20.9-11.1,26.5-15.8l15.8-58.7v0c0-15-17.1-24-29.2-15.2c-1.9,1.4-3.9,3.2-5.8,5.4c-3.8,4.5-6.3,9.9-7.8,15.5
	L1059.4,284.3z M1036.2,376.2c-0.9,4.2-1.8,8.3-3,12.4l-9.4,32.6c-0.7,2.4-1.4,4.8-2.3,7.2c-9.8,26.5-4.4,31-1,31.5
	c1.9,0.3,3.8,0.6,5.6,1.2c26,8.2,32.5-23.3,32.5-23.3l23.7-90.3C1045.9,349.2,1037.9,368.1,1036.2,376.2z"/>
<path class="st1" d="M1292.5,120.3h104.7l-2.6,173.2l81-173.2H1579L1410,447.8c-1.6,3.2-3.2,6.4-4.6,9.7
	c-6.4,14.6-31.9,64.8-78,64.8c-54,0-105.4,0-105.4,0l11.6-42.4h41.9c0,0,17.6,0.5,24.7-17.9c1.7-4.4,2.3-9.2,2.1-13.9l-7.8-257.7
	L1292.5,120.3z"/>
<path class="st1" d="M1655.1,430.9c-10.1,30.3,3.1,31.2,3.1,31.2c34.2,4.8,35.6-23.7,35.6-23.7l18.9-73.8h122
	c0,0-6.6,63.7-39.1,112.4s-131.3,51.8-212,38.6c-80.8-13.2-49.6-83.9-49.6-83.9l61-230c28.5-64.5,109.8-80.8,209.8-70.2
	c100.1,10.5,74.2,76.4,74.2,76.4l-39.9,145.8h-163.7L1655.1,430.9z M1691.6,293.9h41.3l20.6-77.6c0.6-2.4,1.4-4.8,2.2-7.2
	c1.6-4.9,3.7-15.9-9.6-18.4c-10.3-1.9-21.1,2.3-27.2,10.9c-4,5.6-5.7,11.4-6.4,14.3c-0.7,2.8-1.4,5.6-2.2,8.4L1691.6,293.9z"/>
<path class="st1" d="M2056.4,131.1l-4,13.6c0,0,57.9-29.6,116.6-11.2c44,13.8,39,42.5,33.8,55.9c-4,10.4-7.2,21-10.2,31.7l-19,69.7
	h-121.2l21.7-76.4c0,0,12.5-25.4-17.6-24.8c-6.8,0.1-13.5,2.8-18,7.9c-2.2,2.5-4.2,5.8-4.9,10c-1,5.4-1.9,10.9-3.3,16.2L1953,518.7
	h-125.8l106-387.2L2056.4,131.1z"/>
</svg>
