<?xml version="1.0" encoding="utf-8"?>
<!-- Generator: Adobe Illustrator 24.0.1, SVG Export Plug-In . SVG Version: 6.00 Build 0)  -->
<svg version="1.1" id="Layer_1" xmlns="http://www.w3.org/2000/svg" xmlns:xlink="http://www.w3.org/1999/xlink" x="0px" y="0px"
	 viewBox="0 0 622 118.51" style="enable-background:new 0 0 622 118.51;" xml:space="preserve">
<style type="text/css">
	.st0{fill:#AFB1B3;}
	.st1{fill:#DCDBDB;}
	.st2{fill:#1171A4;}
</style>
<g>
	<path class="st0" d="M211.5,100.64l0.1,17.87h-5.93l-0.05-3.22h-10.97l-3.35,3.22h-6l19.12-17.87H211.5z M205.58,111.54l0.06-6.62
		l-6.93,6.62H205.58z"/>
	<path class="st0" d="M244.17,100.64l3.35,12.92l6.93-12.92h5.42l-9.59,17.87h-8.42l-3.43-12.74l-6.84,12.74h-5.42l9.59-17.87
		H244.17z"/>
	<path class="st0" d="M291.34,100.64c2.02,0,4.85-0.13,5.67,1.64c0.7,1.55-0.36,3.53-1.47,5.59l-1.89,3.53
		c-0.91,1.69-2.06,3.93-4.38,5.44c-2.5,1.6-5.8,1.67-7.6,1.67h-15.5l9.59-17.87H291.34z M282.1,114.13c1.95,0,3.29,0.11,4.94-1.31
		c0.93-0.82,3.55-5.75,3.57-6.57c-0.01-1.4-2.04-1.24-3.95-1.24h-7.84l-4.89,9.12H282.1z"/>
	<path class="st0" d="M347.32,107.07c0.97-1.97,0.14-2.04-1.58-2.06h-5.97c-1,0-2.29-0.16-3.59,1.11c-0.76,0.75-3.64,6.04-3.56,6.84
		c0.12,1.35,1.52,1.18,2.81,1.18h4.66c1.56,0,2.74,0.11,3.93-0.96c0.39-0.35,0.64-0.78,1.11-1.58h5.44
		c-0.4,0.76-2.05,4.15-4.04,5.46c-2.13,1.44-4.19,1.44-5.7,1.44h-8.93c-2.2,0-4.85,0.02-5.63-1.6c-0.76-1.69,0.3-3.62,1.77-6.37
		l1.1-2.04c1.21-2.26,2.34-4.53,4.91-6.22c2.48-1.6,5.68-1.64,7.57-1.64h8.73c2.25,0,3.98,0.2,4.06,2.24
		c0.02,0.76-1.02,2.97-1.7,4.2H347.32z"/>
	<path class="st0" d="M364.97,116.91c-0.66-1.47,0.94-4.49,1.58-5.68l1.98-3.69c0.69-1.29,1.94-3.82,4.34-5.35
		c2.49-1.62,5.01-1.55,7.14-1.55h8.75c2.13,0,4.68-0.02,5.48,1.55c0.71,1.33-0.94,4.06-1.63,5.35l-1.98,3.69
		c-0.82,1.53-2.06,4.22-4.29,5.68c-2.33,1.53-6.05,1.6-7.3,1.6h-8.49C368.89,118.51,365.66,118.44,364.97,116.91z M384.01,112.96
		c0.32-0.27,0.9-1.18,1.43-2.18l1.3-2.42c0.52-0.98,0.94-1.91,0.9-2.18c-0.06-1.33-1.79-1.18-2.68-1.18h-6.09
		c-0.89,0-2.45-0.16-3.94,1.18c-0.32,0.27-0.84,1.07-1.43,2.18l-1.3,2.42c-0.55,1.02-0.94,1.91-0.9,2.18
		c0.05,1.35,1.79,1.18,2.68,1.18h6.09C380.96,114.13,382.51,114.31,384.01,112.96z"/>
	<path class="st0" d="M420.66,100.64l0.04,11.43l12.31-11.43h8.71l-9.59,17.87h-5.42l6.91-12.88l-14.31,12.88h-4.11l-0.32-12.81
		l-6.87,12.81h-5.42l9.59-17.87H420.66z"/>
	<path class="st0" d="M471.3,100.64c1.64,0,5.23-0.07,5.3,2.57c0.05,1.89-2.52,6.68-4.65,8.59c-2.93,2.6-4.79,2.31-7.14,2.33h-8.97
		l-2.35,4.37h-5.42l9.59-17.87H471.3z M465.38,109.78c0.82,0,1.99,0.09,3.14-0.89c0.51-0.44,1.52-2.38,1.49-2.77
		c0.01-1.18-1.38-1.11-3.31-1.11h-5.95l-2.56,4.77H465.38z"/>
	<path class="st0" d="M506.69,100.64l0.1,17.87h-5.93l-0.05-3.22h-10.97l-3.35,3.22h-6l19.12-17.87H506.69z M500.78,111.54
		l0.06-6.62l-6.93,6.62H500.78z"/>
	<path class="st0" d="M539.37,100.64l3.35,12.92l6.93-12.92h5.42l-9.59,17.87h-8.42l-3.43-12.74l-6.84,12.74h-5.42l9.59-17.87
		H539.37z"/>
	<path class="st0" d="M576.01,100.64l1.99,7.3l10.03-7.3h6.35l-16.19,11.72l-3.3,6.15h-5.38l3.38-6.3l-3.37-11.57H576.01z"/>
</g>
<g>
	<g>
		<polygon class="st1" points="174.78,110.08 0,110.08 3,106.29 177.78,106.29 		"/>
	</g>
</g>
<g>
	<path class="st2" d="M179.95,0l-31.4,57.92h52.41l-10.17,18.77h-75.66L156.7,0H179.95z"/>
</g>
<g>
	<path class="st2" d="M308.29,0l-0.03,76.69h-25.44l-0.13-13.81h-47.07l-14.44,13.81h-25.73L277.9,0H308.29z M282.65,46.78
		l0.43-28.39l-29.87,28.39H282.65z"/>
</g>
<g>
	<path class="st2" d="M352.88,0l8.35,31.34L404.43,0h27.25l-69.77,50.3l-14.3,26.39h-23.06l14.67-27.06L325.05,0H352.88z"/>
</g>
<g>
	<path class="st2" d="M621.85,6.67c1.42,6-7.7,23.34-12.61,29.25c-5.88,7.34-11.18,8.67-17.75,10.77c2.3,0.86,3.8,1.43,4.9,2.38
		c4.77,4.38-2.13,15.53-5.54,21.82l-3.15,5.81h-23.25c4.75-8.77,8.74-15.24,7.32-17.72c-1.14-2.48-7.96-2.19-10.63-2.19h-32.11
		l-10.79,19.91h-23.25L536.57,0h66.51C611.37,0,620.24-0.38,621.85,6.67z M573.08,37.06c3.24,0,10.33,0.29,15.02-3.62
		c2.32-2,5.83-8.48,5.89-10.86c0.09-4.38-7.56-3.81-10.8-3.81h-33.54l-9.92,18.29H573.08z"/>
</g>
<polygon class="st2" points="43.27,19.08 35.12,34.12 35.23,34.04 43.37,19.08 "/>
<path class="st2" d="M112.12,0L76.79,0.02l-10.1,18.75l0,0l25.54,0c8.29,0,14.26-0.29,14.19,4.76c0.12,1.72-4.28,10-6.46,11.91
	c-4.94,4.19-9.97,3.81-13.5,3.81H71.77L61.71,57.93h22.25c10.06-0.1,18.06,1.14,30.67-10c9.21-8.19,20.36-28.77,20.18-36.87
	C134.57-0.28,119.17,0,112.12,0z"/>
<polygon class="st0" points="53.62,0.01 48.88,0 21.48,19.12 43.27,19.08 43.37,19.08 35.23,34.04 12.04,76.69 35.48,76.69 
	65.96,20.11 76.79,0.02 "/>
<g>
	<g>
		<g>
			<polygon class="st2" points="396.84,76.69 480.29,76.69 489.77,59.51 406.32,59.51 			"/>
		</g>
		<g>
			<polygon class="st2" points="439.13,0 429.65,17.18 513.12,17.18 522.6,0 			"/>
		</g>
		<g>
			<polygon class="st2" points="413.39,46.67 494.9,46.67 504.38,29.49 422.87,29.49 			"/>
		</g>
	</g>
</g>
</svg>
