<svg xmlns="http://www.w3.org/2000/svg" viewBox="0 0 48 48"><defs><style>.cls-1{fill:#6fabe6;}.cls-2{fill:#dad7e5;}.cls-3{fill:#82bcf4;}.cls-4{fill:#edebf2;}.cls-5{fill:#374f68;}.cls-6{fill:#425b72;}</style></defs><title>Help Phone Call</title><g id="Help_Phone_Call" data-name="Help Phone Call"><path class="cls-1" d="M47,22a20.93,20.93,0,0,1-7.77,16.3l-4.16-4.16a2,2,0,0,0-2.83,0c-3.38,3.38-3.89,4.35-5.36,3.94-9.33-2.57-14.59-8.36-17-17a2,2,0,0,1,.52-1.94l3.42-3.42a2,2,0,0,0,0-2.83L9.7,8.77C22.09-6.52,47,2.26,47,22Z"/><path class="cls-2" d="M42,22a15.92,15.92,0,0,1-6.34,12.73l-.59-.59a2,2,0,0,0-2.83,0c-3.38,3.38-3.89,4.35-5.36,3.94-9.33-2.57-14.59-8.36-17-17a2,2,0,0,1,.52-1.94l3.42-3.42a2,2,0,0,0,0-2.83l-.59-.59C22.47.16,42,6.7,42,22Z"/><path class="cls-3" d="M47,22a20.89,20.89,0,0,1-6.28,15c-4.73-4.74-5.06-5.41-7.06-5.41s-2.8,1.16-6.26,4.59C18.75,33.76,14,28.53,11.85,20.59c3.3-3.3,4.78-4.22,4.56-6.54-.09-1.77-.65-2-5.37-6.77C24-5.95,47,3,47,22Z"/><path class="cls-4" d="M42,22a15.87,15.87,0,0,1-4.82,11.42l-.7-.7a4,4,0,0,0-5.65,0L27.4,36.15C19.13,33.87,14,28.47,12.09,21.46c-.34-1.23-.78-.27,3.18-4.29a4,4,0,0,0,0-5.65l-.69-.69C24.5.6,42,7.69,42,22Z"/><path class="cls-5" d="M38.68,44.68A6.21,6.21,0,0,1,34.21,47,31.83,31.83,0,0,1,1,15.18c0-3.33.6-4.14,2.32-5.86l8.49,8.49c-1.13,1.13-2.28,1.9-1.89,3.31a24.12,24.12,0,0,0,2.49,6.26A22.6,22.6,0,0,0,26,37.84c2.21.61,2.09.44,4.18-1.65Z"/><path class="cls-6" d="M38.68,44.68a4,4,0,0,1-1.47.29A31.83,31.83,0,0,1,4,13.18a9,9,0,0,1,.29-2.89l7.52,7.52c-1.13,1.13-2.28,1.9-1.89,3.31,2.46,8.92,7.9,14.46,17,17,1.37.38,2-.6,3.31-1.89Z"/><path class="cls-5" d="M41.3,41.06c.11,1.19-.58,1.58-2.62,3.62l-8.49-8.49,2.05-2a2,2,0,0,1,2.83,0C41.23,40.3,41.26,40.1,41.3,41.06Z"/><path class="cls-6" d="M41.3,41.06a2.31,2.31,0,0,1-3.24,0l-6.37-6.37.55-.55a2,2,0,0,1,2.83,0C41.23,40.3,41.26,40.1,41.3,41.06Z"/><path class="cls-5" d="M14.42,14.2c.13,1.17-.56,1.56-2.61,3.61L3.32,9.32,5.37,7.27a2,2,0,0,1,2.83,0C14.34,13.41,14.38,13.21,14.42,14.2Z"/><path class="cls-6" d="M14.42,14.2a2.3,2.3,0,0,1-3.22,0L4.82,7.82l.55-.55a2,2,0,0,1,2.83,0C14.34,13.41,14.38,13.21,14.42,14.2Z"/><path class="cls-3" d="M24,17H20a1,1,0,0,0,0,2h3v2H20a1,1,0,0,0-1,1v4a1,1,0,0,0,1,1h4a1,1,0,0,0,0-2H21V23h3a1,1,0,0,0,1-1V18A1,1,0,0,0,24,17Z"/><path class="cls-3" d="M31,18v3H29V18a1,1,0,0,0-2,0v4a1,1,0,0,0,1,1h3v3a1,1,0,0,0,2,0V18A1,1,0,0,0,31,18Z"/></g></svg>