<?xml version="1.0" encoding="iso-8859-1"?>
<!-- Generator: Adobe Illustrator 19.0.0, SVG Export Plug-In . SVG Version: 6.00 Build 0)  -->
<svg version="1.1" id="Layer_1" xmlns="http://www.w3.org/2000/svg" xmlns:xlink="http://www.w3.org/1999/xlink" x="0px" y="0px"
	 viewBox="0 0 512 512" style="enable-background:new 0 0 512 512;" xml:space="preserve">
<polygon style="fill:#B3B3B3;" points="455.573,391.379 400.528,391.379 400.528,479.524 455.573,479.524 455.573,469.423 
	455.573,401.804 "/>
<path style="fill:#999999;" d="M185.902,121.018h179.59c25.235,0,45.766,20.531,45.766,45.766s-20.531,45.766-45.766,45.766H146.508
	c-73.157,0-132.665,59.508-132.665,132.665S73.351,477.88,146.508,477.88h179.59v-86.898h-179.59
	c-25.235,0-45.766-20.531-45.766-45.766s20.531-45.766,45.766-45.766h218.984c73.157,0,132.665-59.508,132.665-132.665
	S438.649,34.12,365.492,34.12h-179.59V121.018z"/>
<path style="fill:#B3B3B3;" d="M146.508,452.39c-59.097,0-107.175-48.078-107.175-107.175s48.078-107.175,107.175-107.175h218.984
	c39.291,0,71.257-31.966,71.257-71.257s-31.966-71.257-71.257-71.257H185.713V59.61h179.78c59.097,0,107.175,48.078,107.175,107.175
	S424.59,273.959,365.493,273.959H146.509c-39.291,0-71.257,31.966-71.257,71.257s31.966,71.257,71.257,71.257h177.469v35.918
	H146.508z"/>
<path style="fill:#CCCCCC;" d="M498.157,166.783c0,73.157-59.508,132.665-132.665,132.665H146.508
	c-25.235,0-45.766,20.531-45.766,45.766s20.531,45.766,45.766,45.766h179.59v25.49h-179.59c-39.29,0-71.257-31.967-71.257-71.257
	s31.967-71.257,71.257-71.257h218.984c59.102,0,107.175-48.072,107.175-107.175c0-59.091-48.072-107.175-107.175-107.175h-179.59
	v-25.49h179.59C438.649,34.119,498.157,93.627,498.157,166.783z"/>
<g>
	<polygon style="fill:#E6E6E6;" points="189.083,10.765 143.308,10.765 143.308,144.676 189.083,144.676 189.083,129.33 
		189.083,26.602 	"/>
	<polygon style="fill:#E6E6E6;" points="371.56,367.031 325.785,367.031 325.785,500.942 371.56,500.942 371.56,485.596 
		371.56,382.867 	"/>
</g>
<polygon style="fill:#B3B3B3;" points="113.771,33.938 58.726,33.938 58.726,121.503 113.771,121.503 113.771,111.468 
	113.771,44.294 "/>
<polygon style="fill:#999999;" points="113.77,98.822 58.726,98.822 58.726,121.503 113.77,121.503 113.77,118.905 113.77,101.504 
	"/>
<polygon style="fill:#CCCCCC;" points="113.77,35.096 58.726,35.096 58.726,57.778 113.77,57.778 113.77,55.179 113.77,37.779 "/>
<polygon style="fill:#999999;" points="455.569,456.843 400.526,456.843 400.526,479.524 455.569,479.524 455.569,476.926 
	455.569,459.525 "/>
<polygon style="fill:#CCCCCC;" points="455.569,393.117 400.526,393.117 400.526,415.799 455.569,415.799 455.569,413.2 
	455.569,395.8 "/>
<g>
	<polygon style="fill:#B3B3B3;" points="113.771,33.938 58.726,33.938 58.726,121.503 113.771,121.503 113.771,111.468 
		113.771,44.294 	"/>
	<polygon style="fill:#B3B3B3;" points="142.737,19.079 114.342,19.079 114.342,136.362 142.737,136.362 142.737,122.922 
		142.737,32.95 	"/>
	<polygon style="fill:#B3B3B3;" points="399.943,375.344 371.548,375.344 371.548,492.628 399.943,492.628 399.943,479.187 
		399.943,389.215 	"/>
</g>
<g>
	<polygon style="fill:#CCCCCC;" points="189.083,108.937 143.308,108.937 143.308,144.676 189.083,144.676 189.083,140.581 
		189.083,113.164 	"/>
	<polygon style="fill:#CCCCCC;" points="371.56,465.201 325.785,465.201 325.785,500.942 371.56,500.942 371.56,496.846 
		371.56,469.428 	"/>
</g>
<g>
	<path style="fill:#FFFFFF;" d="M187.815,428.638h-41.306c-45.999,0-83.422-37.423-83.422-83.422c0-4.799,3.891-8.69,8.69-8.69
		s8.69,3.891,8.69,8.69c0,36.416,29.627,66.043,66.043,66.043h41.306c4.799,0,8.69,3.891,8.69,8.69S192.614,428.638,187.815,428.638
		z"/>
	<path style="fill:#FFFFFF;" d="M469.19,175.474c-4.799,0-8.69-3.891-8.69-8.69c0-52.388-42.621-95.009-95.009-95.009h-33.435
		c-4.799,0-8.69-3.891-8.69-8.69s3.891-8.69,8.69-8.69h33.435c61.971,0,112.388,50.417,112.388,112.388
		C477.88,171.584,473.99,175.474,469.19,175.474z"/>
</g>
<path style="fill:#333333;" d="M146.508,308.139h218.984c77.943,0,141.355-63.411,141.355-141.355S443.435,25.43,365.492,25.43
	h-170.9V8.69c0-4.799-3.891-8.69-8.69-8.69h-46.145c-4.5,0-8.202,3.421-8.645,7.805h-16.923c-4.799,0-8.69,3.891-8.69,8.69v8.935
	H57.293c-4.799,0-8.69,3.891-8.69,8.69s3.891,8.69,8.69,8.69h48.205v69.519H57.293c-4.799,0-8.69,3.891-8.69,8.69
	c0,4.799,3.891,8.69,8.69,8.69h48.205v9.065c0,4.799,3.891,8.69,8.69,8.69h16.898c0.198,4.623,3.998,8.314,8.671,8.314h46.145
	c4.799,0,8.69-3.891,8.69-8.69v-17.38h170.9c20.444,0,37.077,16.632,37.077,37.077s-16.632,37.077-37.077,37.077H146.508
	c-77.943,0-141.355,63.411-141.355,141.355S68.565,486.57,146.508,486.57h170.9v16.74c0,4.799,3.891,8.69,8.69,8.69h46.144
	c4.5,0,8.202-3.421,8.645-7.805h16.923c4.799,0,8.69-3.891,8.69-8.69v-8.935h48.207c4.799,0,8.69-3.891,8.69-8.69
	s-3.891-8.69-8.69-8.69H406.5v-69.519h48.207c4.799,0,8.69-3.891,8.69-8.69s-3.891-8.69-8.69-8.69H406.5v-9.065
	c0-4.799-3.891-8.69-8.69-8.69h-16.898c-0.198-4.623-3.998-8.314-8.671-8.314h-46.144c-4.799,0-8.69,3.891-8.69,8.69v17.38h-170.9
	c-20.444,0-37.077-16.632-37.077-37.077S126.064,308.139,146.508,308.139z M122.883,34.12c0-0.034-0.005-8.935-0.005-8.935h8.189
	v104.899h-8.189C122.879,130.083,122.883,34.154,122.883,34.12z M177.212,138.398h-28.766V17.38h28.766V138.398z M389.121,486.817
	h-8.189v-104.9h8.189V486.817z M334.788,373.602h28.764V494.62h-28.764V373.602z M146.508,399.672h170.9v69.519h-170.9
	c-68.36,0-123.975-55.615-123.975-123.975s55.615-123.975,123.975-123.975h218.984c30.027,0,54.456-24.429,54.456-54.456
	s-24.429-54.456-54.456-54.456h-170.9V42.81h170.9c68.36,0,123.975,55.615,123.975,123.975s-55.615,123.975-123.975,123.975H146.508
	c-30.027,0-54.456,24.429-54.456,54.456S116.481,399.672,146.508,399.672z"/>
<g>
	<circle style="fill:#FFFFFF;" cx="215.624" cy="419.95" r="8.69"/>
	<circle style="fill:#FFFFFF;" cx="347.697" cy="389.246" r="8.69"/>
	<circle style="fill:#FFFFFF;" cx="303.669" cy="63.088" r="8.69"/>
	<circle style="fill:#FFFFFF;" cx="161.747" cy="31.242" r="8.69"/>
</g>
<g>
</g>
<g>
</g>
<g>
</g>
<g>
</g>
<g>
</g>
<g>
</g>
<g>
</g>
<g>
</g>
<g>
</g>
<g>
</g>
<g>
</g>
<g>
</g>
<g>
</g>
<g>
</g>
<g>
</g>
</svg>
