<svg xmlns="http://www.w3.org/2000/svg" viewBox="0 0 48 48"><defs><style>.cls-1{fill:#1e0f00;}</style></defs><title>Asset 61</title><g id="Layer_2" data-name="Layer 2"><g id="_1" data-name="1"><rect class="cls-1" x="27" y="19" width="12" height="2"/><rect class="cls-1" y="46" width="48" height="2"/><path class="cls-1" d="M40.25,35.15,37.14,14H28.86L26.64,29.15l-2-.3,2.35-16A1,1,0,0,1,28,12H38a1,1,0,0,1,1,.85l3.23,22Z"/><rect class="cls-1" x="13" y="4" width="7" height="2"/><path class="cls-1" d="M36,10H34V9a7,7,0,0,0-7-7H26V0h1a9,9,0,0,1,9,9Z"/><path class="cls-1" d="M32,10H30V9a3,3,0,0,0-3-3H22V4h5a5,5,0,0,1,5,5Z"/><rect class="cls-1" x="17" width="7" height="2"/><rect class="cls-1" x="7" width="8" height="2"/><path class="cls-1" d="M46,47H44V36H29V34H45a1,1,0,0,1,1,1Z"/><path class="cls-1" d="M30,47H28V30H4V47H2V29a1,1,0,0,1,1-1H29a1,1,0,0,1,1,1Z"/><path class="cls-1" d="M22,29H20V10H6V29H4V9A1,1,0,0,1,5,8H21a1,1,0,0,1,1,1Z"/><rect class="cls-1" x="32" y="38" width="2" height="2"/><rect class="cls-1" x="36" y="38" width="2" height="2"/><rect class="cls-1" x="40" y="38" width="2" height="2"/><rect class="cls-1" x="32" y="42" width="2" height="2"/><rect class="cls-1" x="36" y="42" width="2" height="2"/><rect class="cls-1" x="40" y="42" width="2" height="2"/><rect class="cls-1" x="7" y="33" width="3" height="2"/><rect class="cls-1" x="9" y="23" width="8" height="2"/><rect class="cls-1" x="9" y="18" width="8" height="2"/><rect class="cls-1" x="9" y="13" width="8" height="2"/><rect class="cls-1" x="12" y="33" width="3" height="2"/><rect class="cls-1" x="7" y="37" width="3" height="2"/><rect class="cls-1" x="12" y="37" width="3" height="2"/><rect class="cls-1" x="7" y="41" width="3" height="2"/><rect class="cls-1" x="12" y="41" width="3" height="2"/><rect class="cls-1" x="17" y="33" width="3" height="2"/><rect class="cls-1" x="17" y="37" width="3" height="2"/><rect class="cls-1" x="17" y="41" width="3" height="2"/></g></g></svg>