<svg width="165" height="165" viewBox="0 0 165 165" fill="none" xmlns="http://www.w3.org/2000/svg">
<path d="M66.0827 119.437L115.333 82.4998L66.0827 45.5623V119.437ZM82.4993 0.416504C37.1893 0.416504 0.416016 37.1898 0.416016 82.4998C0.416016 127.81 37.1893 164.583 82.4993 164.583C127.809 164.583 164.583 127.81 164.583 82.4998C164.583 37.1898 127.809 0.416504 82.4993 0.416504ZM82.4993 148.167C46.3006 148.167 16.8327 118.699 16.8327 82.4998C16.8327 46.3011 46.3006 16.8332 82.4993 16.8332C118.698 16.8332 148.166 46.3011 148.166 82.4998C148.166 118.699 118.698 148.167 82.4993 148.167Z" fill="#E0E0E0"/>
</svg>
