<svg xmlns="http://www.w3.org/2000/svg" viewBox="0 0 48 48"><defs><style>.cls-1{fill:#edebf2;}.cls-2{fill:#dad7e5;}.cls-3{fill:#425b72;}.cls-4{fill:#374f68;}.cls-5{fill:#db5669;}.cls-6{fill:#f26674;}</style></defs><title>Oil Pump</title><g id="Oil_Pump" data-name="Oil Pump"><path class="cls-1" d="M39,37V21a1,1,0,0,1,2,0V37A1,1,0,0,1,39,37Z"/><path class="cls-2" d="M27,13.15V17H21V14.21Z"/><path class="cls-1" d="M27,13.15V15H24a1,1,0,0,1-1-1.14Z"/><path class="cls-3" d="M29,39.09,27.09,18H20.91L19,39.09a1,1,0,0,1-2-.18l2-22A1,1,0,0,1,20,16h8a1,1,0,0,1,1,.91l2,22A1,1,0,0,1,29,39.09Z"/><path class="cls-3" d="M17.47,38.15l9.64-6.07-8.46-3.14a1,1,0,0,1-.12-1.82l8.09-4.28-7.19-5a1,1,0,0,1,1.14-1.64c9.07,6.32,9,6.05,9,6.84s-.16.62-8.1,4.82c9,3.34,8.82,3.06,8.9,3.91s.31.46-11.81,8.1A1,1,0,0,1,17.47,38.15Z"/><rect class="cls-4" x="1" y="43" width="46" height="4"/><path class="cls-3" d="M47,43v2H5a2,2,0,0,1-2-2Z"/><rect class="cls-2" x="38" y="37" width="4" height="6"/><path class="cls-1" d="M42,37v4a2,2,0,0,1-2-2V37Z"/><rect class="cls-2" x="16" y="39" width="16" height="4"/><path class="cls-1" d="M32,39v2H20a2,2,0,0,1-2-2Z"/><path class="cls-4" d="M38.83,11.07,5.35,17a2,2,0,0,1-2.08-3c.69-1.16-1.53-.46,35.09-6.91C38.65,9.51,38.54,8.6,38.83,11.07Z"/><path class="cls-3" d="M38.6,9.11,5.35,15a2,2,0,0,1-2.08-1c.69-1.16-1.53-.46,35.09-6.91Z"/><path class="cls-5" d="M43,19l-3,2L38,4l4-3C43.44,5,46.39,11.13,43,19Z"/><path class="cls-6" d="M44.56,11.42a19.37,19.37,0,0,1-.9,5.81,2,2,0,0,1-3-1.4L39.14,3.15,42,1C43.45,5,44.56,7.38,44.56,11.42Z"/><rect class="cls-2" x="3" y="31" width="8" height="12"/><path class="cls-1" d="M11,31c0,10.61-.1,10,0,10a6,6,0,0,1-6-6V31Z"/><path class="cls-2" d="M9,16.33V31H5V17Z"/><path class="cls-1" d="M9,16.33C9,29.68,8.9,29,9,29a2,2,0,0,1-2-2V16.67Z"/></g></svg>