<svg xmlns="http://www.w3.org/2000/svg" viewBox="0 0 48 48"><defs><style>.cls-1{fill:#dad7e5;}.cls-2{fill:#edebf2;}.cls-3{fill:#7c7d7d;}.cls-4{fill:#919191;}.cls-5{fill:#9fdbf3;}.cls-6{fill:#b2e5fb;}.cls-7{fill:#9dcc6b;}.cls-8{fill:#b5e08c;}.cls-9{fill:#8bd1ea;}</style></defs><title>Waste (Water Pollution)</title><g id="Waste_Water_Pollution_" data-name="Waste (Water Pollution)"><rect class="cls-1" x="1" y="5" width="10" height="6"/><path class="cls-2" d="M11,5V9H7A4,4,0,0,1,3,5Z"/><rect class="cls-3" x="1" y="11" width="8" height="28"/><path class="cls-4" d="M9,11c0,24.83-.1,24,0,24a6,6,0,0,1-6-6V11Z"/><rect class="cls-1" x="9" y="16" width="8" height="8"/><path class="cls-2" d="M17,16v6a6,6,0,0,1-6-6Z"/><rect class="cls-1" x="17" y="15" width="4" height="10"/><path class="cls-2" d="M21,15c0,8.55-.1,8,0,8a2,2,0,0,1-2-2V15Z"/><path class="cls-5" d="M47,37V47H1V37c3.8,0,3.86-2,7.67-2s3.84,2,7.67,2,3.84-2,7.67-2,3.83,2,7.66,2,3.83-2,7.67-2S43.17,37,47,37Z"/><path class="cls-6" d="M47,37v8H6a3,3,0,0,1-3-3V36.76C5,36.24,5.65,35,8.67,35c3.84,0,3.84,2,7.67,2s3.84-2,7.67-2,3.83,2,7.66,2,3.83-2,7.67-2S43.17,37,47,37Z"/><path class="cls-7" d="M40,35c-.13,0,.07,0-.66,0-3.84,0-3.84,2-7.67,2S27.84,35,24,35a7.11,7.11,0,0,0-3.42.78,3,3,0,0,1,3.88-4.4A3,3,0,0,1,27,30V27a3,3,0,0,0-3-3H21V18h4a8,8,0,0,1,8,8v5a3,3,0,0,1,2.53,1.38A3,3,0,0,1,40,35Z"/><path class="cls-8" d="M40,35c-.13,0,.07,0-.66,0-3.84,0-3.84,2-7.67,2S27.84,35,24,35a7.38,7.38,0,0,0-2,.24,3,3,0,0,1,4.46-2.86A3,3,0,0,1,29,31V26a4,4,0,0,0-4-4,2,2,0,0,1-2-2V18h2a8,8,0,0,1,8,8v5a3,3,0,0,1,2.53,1.38A3,3,0,0,1,40,35Z"/><path class="cls-9" d="M11,41H9a1,1,0,0,1,0-2h2A1,1,0,0,1,11,41Z"/><path class="cls-9" d="M18,44H16a1,1,0,0,1,0-2h2A1,1,0,0,1,18,44Z"/><path class="cls-9" d="M25,41H23a1,1,0,0,1,0-2h2A1,1,0,0,1,25,41Z"/><path class="cls-9" d="M32,44H30a1,1,0,0,1,0-2h2A1,1,0,0,1,32,44Z"/><path class="cls-9" d="M39,41H37a1,1,0,0,1,0-2h2A1,1,0,0,1,39,41Z"/><path class="cls-9" d="M46,44H44a1,1,0,0,1,0-2h2A1,1,0,0,1,46,44Z"/><path class="cls-9" d="M4,44H2a1,1,0,0,1,0-2H4A1,1,0,0,1,4,44Z"/></g></svg>